<?xml version="1.0" encoding="utf-8"?>
<!-- Generator: Adobe Illustrator 16.0.0, SVG Export Plug-In . SVG Version: 6.00 Build 0)  -->
<!DOCTYPE svg PUBLIC "-//W3C//DTD SVG 1.1//EN" "http://www.w3.org/Graphics/SVG/1.1/DTD/svg11.dtd">
<svg version="1.1" id="Layer_1" xmlns="http://www.w3.org/2000/svg" xmlns:xlink="http://www.w3.org/1999/xlink" x="0px" y="0px"
	 width="20px" height="20px" viewBox="0 0 20 20" enable-background="new 0 0 20 20" xml:space="preserve">
<g>
	<path fill-rule="evenodd" clip-rule="evenodd" fill="#818181" d="M14.361,19c-0.34-0.054-0.686-0.089-1.021-0.166
		c-1.345-0.301-2.569-0.892-3.729-1.617c-2.32-1.448-4.279-3.296-5.943-5.459c-0.937-1.216-1.729-2.522-2.286-3.96
		C1.106,7.088,0.895,6.36,0.836,5.596C0.833,5.558,0.82,5.521,0.811,5.483c0-0.212,0-0.425,0-0.637
		c0.01-0.036,0.025-0.073,0.03-0.11c0.057-0.492,0.236-0.925,0.601-1.273C1.616,3.297,1.782,3.124,1.947,2.95
		c0.501-0.522,1.048-0.971,1.782-1.123c0.134,0,0.268,0,0.403,0C5.183,2.03,5.788,2.801,6.365,3.599
		c0.322,0.444,0.596,0.917,0.731,1.458c0.156,0.63,0.003,1.186-0.411,1.67C6.461,6.991,6.225,7.246,5.973,7.482
		C5.77,7.674,5.732,7.886,5.8,8.135C5.926,8.604,6.187,9,6.471,9.382c0.865,1.163,1.889,2.177,2.962,3.144
		c0.557,0.502,1.135,0.977,1.808,1.321c0.099,0.052,0.203,0.091,0.308,0.13c0.315,0.119,0.588,0.096,0.828-0.187
		c0.182-0.216,0.406-0.397,0.616-0.589c0.63-0.578,1.35-0.705,2.125-0.367c0.978,0.426,1.821,1.039,2.471,1.898
		c0.213,0.279,0.321,0.607,0.396,0.947c0,0.135,0,0.268,0,0.402c-0.105,0.517-0.348,0.965-0.705,1.346
		c-0.349,0.367-0.716,0.72-1.078,1.074c-0.21,0.203-0.469,0.322-0.748,0.393c-0.171,0.043-0.348,0.07-0.521,0.105
		C14.742,19,14.552,19,14.361,19z M14.66,18.409c0.067,0,0.135,0.004,0.201,0c0.433-0.027,0.821-0.149,1.119-0.489
		c0.113-0.131,0.254-0.237,0.37-0.365c0.262-0.288,0.541-0.566,0.769-0.882c0.369-0.508,0.399-1.058,0.02-1.571
		c-0.609-0.821-1.408-1.413-2.363-1.777c-0.506-0.193-0.97-0.066-1.37,0.286c-0.244,0.213-0.481,0.433-0.705,0.667
		c-0.306,0.319-0.667,0.404-1.087,0.313c-0.467-0.104-0.878-0.327-1.26-0.602c-1.62-1.163-2.998-2.576-4.243-4.124
		C5.763,9.434,5.465,8.967,5.28,8.438C5.096,7.914,5.144,7.446,5.589,7.052c0.225-0.199,0.423-0.43,0.622-0.657
		c0.365-0.42,0.47-0.906,0.26-1.421c-0.362-0.89-0.918-1.649-1.678-2.241C4.235,2.298,3.671,2.281,3.113,2.71
		c-0.432,0.332-0.802,0.742-1.21,1.105C1.546,4.134,1.42,4.541,1.398,4.997C1.364,5.706,1.513,6.387,1.73,7.053
		c0.528,1.618,1.395,3.054,2.424,4.394c1.402,1.825,3.038,3.412,4.926,4.733c1.158,0.811,2.385,1.491,3.738,1.922
		C13.418,18.293,14.028,18.417,14.66,18.409z"/>
	<path fill-rule="evenodd" clip-rule="evenodd" fill="#818181" d="M17.984,8.033c-0.068,0.361-0.127,0.725-0.206,1.083
		c-0.048,0.21-0.128,0.416-0.201,0.62c-0.071,0.194-0.211,0.271-0.372,0.217c-0.171-0.058-0.242-0.21-0.166-0.409
		c0.248-0.661,0.379-1.341,0.365-2.048c-0.048-2.388-1.757-4.461-4.09-4.959c-1.068-0.229-2.109-0.142-3.121,0.271
		c-0.051,0.021-0.103,0.044-0.156,0.06c-0.169,0.05-0.318-0.015-0.373-0.16C9.608,2.561,9.668,2.4,9.831,2.336
		c0.285-0.112,0.571-0.23,0.867-0.302c0.346-0.084,0.701-0.122,1.054-0.18c0.031-0.005,0.063-0.018,0.094-0.027
		c0.213,0,0.425,0,0.638,0c0.043,0.01,0.086,0.025,0.13,0.027c0.618,0.038,1.216,0.174,1.783,0.417
		c1.739,0.748,2.877,2.033,3.385,3.858c0.098,0.346,0.137,0.709,0.203,1.063C17.984,7.474,17.984,7.753,17.984,8.033z"/>
	<path fill-rule="evenodd" clip-rule="evenodd" fill="#818181" d="M15.236,7.678c-0.076,0.323-0.151,0.671-0.242,1.013
		c-0.051,0.19-0.208,0.268-0.373,0.213c-0.153-0.051-0.214-0.199-0.175-0.381c0.063-0.299,0.155-0.599,0.166-0.9
		c0.044-1.215-0.954-2.306-2.169-2.412c-0.397-0.034-0.778,0.014-1.149,0.156c-0.256,0.098-0.421,0.05-0.483-0.125
		c-0.065-0.182,0.023-0.313,0.279-0.417c1.632-0.657,3.512,0.267,3.98,1.965C15.147,7.065,15.179,7.355,15.236,7.678z"/>
</g>
</svg>
