<?xml version="1.0" encoding="utf-8"?>
<!-- Generator: Adobe Illustrator 16.0.0, SVG Export Plug-In . SVG Version: 6.00 Build 0)  -->
<!DOCTYPE svg PUBLIC "-//W3C//DTD SVG 1.1//EN" "http://www.w3.org/Graphics/SVG/1.1/DTD/svg11.dtd">
<svg version="1.1" id="Layer_1" xmlns="http://www.w3.org/2000/svg" xmlns:xlink="http://www.w3.org/1999/xlink" x="0px" y="0px"
	 width="100px" height="40px" viewBox="0 0 100 40" enable-background="new 0 0 100 40" xml:space="preserve">
<g>
	<path fill-rule="evenodd" clip-rule="evenodd" fill="#666666" d="M21.667,2.096c0.237,0,0.475,0,0.713,0
		c0.563,0.146,1.113,0.313,1.568,0.707c0.215,0.185,0.448,0.356,0.693,0.496c3.17,1.8,6.343,3.595,9.521,5.382
		c0.145,0.082,0.335,0.116,0.504,0.117c1.88,0.01,3.758,0.008,5.637,0.01c0,9.949,0,19.898,0,29.847c-12.187,0-24.373,0-36.56,0
		c0-9.948,0-19.897,0-29.847c1.878-0.002,3.757,0,5.636-0.01c0.169,0,0.359-0.036,0.504-0.117c2.361-1.3,4.722-2.603,7.072-3.923
		c0.932-0.523,1.871-1.046,2.744-1.657C20.319,2.669,20.913,2.238,21.667,2.096z M4.976,37.412c11.382,0,22.738,0,34.085,0
		c0-7.722,0-15.413,0-23.103c-11.375,0-22.722,0-34.085,0C4.976,22.017,4.976,29.7,4.976,37.412z M39.07,10.044
		c-11.379,0-22.733,0-34.082,0c0,1.016,0,2.007,0,3.002c11.375,0,22.719,0,34.082,0C39.07,12.042,39.07,11.057,39.07,10.044z
		 M12.328,8.771c6.49,0,12.908,0,19.392,0c-2.242-1.267-4.421-2.5-6.642-3.756c-0.021,0.871-0.273,1.625-0.867,2.231
		c-0.592,0.605-1.317,0.923-2.169,0.93c-0.677,0.006-1.29-0.195-1.829-0.601c-0.836-0.63-1.216-1.497-1.243-2.56
		C16.75,6.272,14.571,7.503,12.328,8.771z M22.006,6.96c1.004,0.008,1.817-0.782,1.841-1.788c0.021-0.985-0.834-1.859-1.824-1.857
		c-0.975,0-1.813,0.838-1.825,1.822C20.188,6.124,21.01,6.953,22.006,6.96z"/>
	<path fill-rule="evenodd" clip-rule="evenodd" fill="#666666" d="M13.479,23.436c0.338-0.006,0.618,0.266,0.616,0.6
		c-0.001,0.314-0.271,0.591-0.588,0.599c-0.327,0.01-0.619-0.279-0.618-0.606C12.892,23.708,13.157,23.441,13.479,23.436z"/>
	<path fill-rule="evenodd" clip-rule="evenodd" fill="#666666" d="M31.158,24.03c0,0.328-0.294,0.614-0.621,0.604
		c-0.317-0.011-0.585-0.286-0.585-0.603c0-0.334,0.28-0.604,0.619-0.596C30.893,23.444,31.158,23.712,31.158,24.03z"/>
	<path fill-rule="evenodd" clip-rule="evenodd" fill="#666666" d="M14.095,33.18c-0.004,0.313-0.277,0.59-0.592,0.592
		c-0.326,0.011-0.618-0.281-0.614-0.606c0.005-0.336,0.29-0.6,0.629-0.588C13.841,32.59,14.1,32.857,14.095,33.18z"/>
	<path fill-rule="evenodd" clip-rule="evenodd" fill="#666666" d="M31.158,19.172c-0.01,0.335-0.295,0.593-0.637,0.577
		c-0.325-0.017-0.577-0.286-0.569-0.608c0.01-0.333,0.3-0.599,0.635-0.581C30.909,18.58,31.166,18.854,31.158,19.172z"/>
	<path fill-rule="evenodd" clip-rule="evenodd" fill="#666666" d="M14.095,28.296c0,0.319-0.258,0.585-0.583,0.594
		c-0.34,0.01-0.622-0.259-0.623-0.592c0-0.317,0.265-0.588,0.585-0.599C13.807,27.688,14.093,27.963,14.095,28.296z"/>
	<path fill-rule="evenodd" clip-rule="evenodd" fill="#666666" d="M31.158,28.295c0.001,0.318-0.262,0.586-0.583,0.595
		c-0.341,0.01-0.621-0.257-0.622-0.592c-0.001-0.318,0.26-0.587,0.582-0.598C30.869,27.688,31.156,27.963,31.158,28.295z"/>
	<path fill-rule="evenodd" clip-rule="evenodd" fill="#666666" d="M17.752,23.436c0.337-0.004,0.62,0.277,0.613,0.606
		c-0.007,0.309-0.29,0.589-0.599,0.593c-0.318,0.004-0.593-0.261-0.604-0.58C17.15,23.711,17.409,23.439,17.752,23.436z"/>
	<path fill-rule="evenodd" clip-rule="evenodd" fill="#666666" d="M26.885,24.027c0.003,0.335-0.279,0.616-0.611,0.607
		c-0.311-0.009-0.589-0.29-0.592-0.6c-0.001-0.315,0.266-0.591,0.584-0.6C26.612,23.426,26.882,23.684,26.885,24.027z"/>
	<path fill-rule="evenodd" clip-rule="evenodd" fill="#666666" d="M18.365,33.186c-0.01,0.326-0.314,0.604-0.639,0.584
		c-0.324-0.018-0.572-0.289-0.564-0.61c0.008-0.345,0.282-0.598,0.628-0.582C18.111,32.593,18.375,32.871,18.365,33.186z"/>
	<path fill-rule="evenodd" clip-rule="evenodd" fill="#666666" d="M22.619,33.186c-0.007,0.323-0.272,0.584-0.592,0.586
		c-0.334,0.004-0.604-0.274-0.598-0.612c0.008-0.345,0.283-0.598,0.627-0.582C22.381,32.593,22.626,32.857,22.619,33.186z"/>
	<path fill-rule="evenodd" clip-rule="evenodd" fill="#666666" d="M26.885,33.159c0.008,0.334-0.268,0.616-0.601,0.612
		c-0.31,0-0.593-0.278-0.602-0.586c-0.008-0.316,0.255-0.593,0.575-0.608C26.604,32.562,26.877,32.814,26.885,33.159z"/>
	<path fill-rule="evenodd" clip-rule="evenodd" fill="#666666" d="M22.027,23.437c0.341,0.002,0.602,0.274,0.592,0.616
		c-0.009,0.321-0.278,0.582-0.598,0.581c-0.335-0.003-0.602-0.284-0.59-0.623C21.44,23.682,21.697,23.435,22.027,23.437z"/>
	<path fill-rule="evenodd" clip-rule="evenodd" fill="#666666" d="M18.363,19.154c0.002,0.316-0.264,0.587-0.584,0.597
		c-0.346,0.011-0.616-0.249-0.617-0.59c-0.001-0.33,0.249-0.589,0.576-0.6C18.072,18.549,18.361,18.823,18.363,19.154z"/>
	<path fill-rule="evenodd" clip-rule="evenodd" fill="#666666" d="M26.885,19.162c-0.003,0.343-0.273,0.601-0.62,0.589
		c-0.321-0.011-0.586-0.283-0.582-0.599c0.003-0.313,0.277-0.587,0.593-0.594C26.615,18.552,26.887,18.821,26.885,19.162z"/>
	<path fill-rule="evenodd" clip-rule="evenodd" fill="#666666" d="M34.817,19.75c-0.331,0-0.584-0.249-0.593-0.577
		c-0.007-0.342,0.258-0.615,0.598-0.613c0.333,0.001,0.61,0.287,0.599,0.617C35.409,19.497,35.143,19.75,34.817,19.75z"/>
	<path fill-rule="evenodd" clip-rule="evenodd" fill="#666666" d="M9.823,28.301C9.82,28.633,9.571,28.883,9.24,28.89
		c-0.339,0.006-0.618-0.265-0.614-0.598c0.003-0.319,0.27-0.587,0.589-0.593C9.554,27.691,9.825,27.959,9.823,28.301z"/>
	<path fill-rule="evenodd" clip-rule="evenodd" fill="#666666" d="M18.363,28.305c-0.005,0.334-0.29,0.597-0.629,0.585
		c-0.332-0.015-0.576-0.271-0.571-0.602c0.004-0.339,0.282-0.602,0.622-0.588C18.102,27.714,18.368,27.99,18.363,28.305z"/>
	<path fill-rule="evenodd" clip-rule="evenodd" fill="#666666" d="M26.885,28.305c-0.004,0.343-0.275,0.599-0.623,0.585
		c-0.321-0.012-0.584-0.284-0.579-0.602c0.005-0.314,0.279-0.584,0.594-0.589C26.618,27.692,26.889,27.963,26.885,28.305z"/>
	<path fill-rule="evenodd" clip-rule="evenodd" fill="#666666" d="M35.421,28.31c-0.009,0.335-0.291,0.595-0.633,0.58
		c-0.328-0.017-0.57-0.275-0.564-0.606c0.007-0.339,0.286-0.6,0.626-0.582C35.171,27.717,35.429,27.992,35.421,28.31z"/>
	<path fill-rule="evenodd" clip-rule="evenodd" fill="#666666" d="M9.228,23.436c0.344,0.001,0.604,0.268,0.596,0.612
		c-0.007,0.319-0.276,0.586-0.595,0.586c-0.329,0.001-0.613-0.291-0.603-0.618C8.637,23.693,8.902,23.436,9.228,23.436z"/>
	<path fill-rule="evenodd" clip-rule="evenodd" fill="#666666" d="M34.807,23.437c0.338-0.007,0.619,0.268,0.615,0.6
		c-0.002,0.312-0.277,0.591-0.589,0.599c-0.317,0.009-0.594-0.256-0.607-0.572C34.21,23.716,34.464,23.444,34.807,23.437z"/>
	<path fill-rule="evenodd" clip-rule="evenodd" fill="#666666" d="M9.822,33.155c0.008,0.338-0.264,0.62-0.596,0.616
		c-0.313,0-0.592-0.272-0.601-0.582c-0.009-0.318,0.25-0.597,0.57-0.612C9.541,32.562,9.813,32.811,9.822,33.155z"/>
	<path fill-rule="evenodd" clip-rule="evenodd" fill="#666666" d="M22.053,18.561c0.338,0.017,0.587,0.3,0.563,0.643
		c-0.023,0.325-0.291,0.561-0.621,0.546c-0.339-0.014-0.586-0.295-0.562-0.639C21.455,18.787,21.728,18.545,22.053,18.561z"/>
	<path fill-rule="evenodd" clip-rule="evenodd" fill="#666666" d="M22.618,28.297c0,0.328-0.25,0.584-0.577,0.593
		c-0.344,0.009-0.612-0.252-0.612-0.594c0.001-0.328,0.252-0.585,0.578-0.595C22.347,27.691,22.618,27.957,22.618,28.297z"/>
</g>
<g>
	<path fill-rule="evenodd" clip-rule="evenodd" fill="#FFFFFF" d="M77.114,1.101c0.236,0,0.476,0,0.713,0
		c0.563,0.146,1.112,0.313,1.567,0.707c0.216,0.185,0.448,0.356,0.693,0.497c3.171,1.8,6.343,3.594,9.521,5.381
		c0.146,0.082,0.336,0.116,0.505,0.117c1.879,0.01,3.757,0.008,5.636,0.01c0,9.949,0,19.899,0,29.846c-12.187,0-24.373,0-36.56,0
		c0-9.947,0-19.897,0-29.846c1.879-0.002,3.758,0,5.636-0.01c0.169,0,0.359-0.036,0.505-0.117c2.361-1.3,4.723-2.603,7.073-3.923
		c0.931-0.523,1.869-1.046,2.743-1.657C75.766,1.674,76.359,1.244,77.114,1.101z M60.422,36.418c11.383,0,22.738,0,34.086,0
		c0-7.723,0-15.413,0-23.103c-11.375,0-22.722,0-34.086,0C60.422,21.022,60.422,28.705,60.422,36.418z M94.517,9.049
		c-11.379,0-22.733,0-34.082,0c0,1.016,0,2.007,0,3.002c11.375,0,22.719,0,34.082,0C94.517,11.047,94.517,10.063,94.517,9.049z
		 M67.774,7.777c6.489,0,12.908,0,19.392,0c-2.241-1.267-4.42-2.5-6.642-3.756c-0.021,0.871-0.273,1.625-0.867,2.231
		c-0.592,0.605-1.316,0.923-2.169,0.93c-0.677,0.006-1.289-0.195-1.829-0.601c-0.836-0.629-1.216-1.496-1.243-2.56
		C72.196,5.277,70.018,6.508,67.774,7.777z M77.453,5.966c1.004,0.008,1.817-0.782,1.841-1.788c0.021-0.985-0.834-1.859-1.823-1.857
		c-0.975,0-1.813,0.838-1.825,1.822C75.635,5.129,76.456,5.958,77.453,5.966z"/>
	<path fill-rule="evenodd" clip-rule="evenodd" fill="#FFFFFF" d="M68.926,22.441c0.338-0.006,0.617,0.265,0.615,0.6
		c-0.002,0.314-0.271,0.59-0.588,0.598c-0.327,0.01-0.618-0.278-0.617-0.605C68.339,22.713,68.604,22.447,68.926,22.441z"/>
	<path fill-rule="evenodd" clip-rule="evenodd" fill="#FFFFFF" d="M86.604,23.036c0.001,0.328-0.294,0.613-0.62,0.603
		c-0.316-0.011-0.585-0.285-0.585-0.602c0-0.335,0.279-0.604,0.619-0.596C86.34,22.45,86.604,22.717,86.604,23.036z"/>
	<path fill-rule="evenodd" clip-rule="evenodd" fill="#FFFFFF" d="M69.541,32.185c-0.004,0.313-0.276,0.591-0.592,0.593
		c-0.325,0.011-0.617-0.281-0.613-0.607c0.005-0.336,0.29-0.599,0.629-0.587C69.288,31.596,69.546,31.862,69.541,32.185z"/>
	<path fill-rule="evenodd" clip-rule="evenodd" fill="#FFFFFF" d="M86.604,18.178c-0.01,0.335-0.294,0.593-0.636,0.577
		c-0.325-0.017-0.578-0.287-0.569-0.608c0.01-0.333,0.299-0.599,0.635-0.58C86.355,17.585,86.612,17.86,86.604,18.178z"/>
	<path fill-rule="evenodd" clip-rule="evenodd" fill="#FFFFFF" d="M69.541,27.301c0,0.319-0.258,0.586-0.582,0.595
		c-0.341,0.01-0.622-0.26-0.623-0.593c0-0.316,0.265-0.588,0.585-0.599C69.254,26.693,69.539,26.968,69.541,27.301z"/>
	<path fill-rule="evenodd" clip-rule="evenodd" fill="#FFFFFF" d="M86.604,27.3c0.001,0.318-0.261,0.587-0.583,0.596
		c-0.341,0.01-0.62-0.258-0.621-0.593c-0.001-0.317,0.26-0.587,0.582-0.598C86.315,26.693,86.603,26.969,86.604,27.3z"/>
	<path fill-rule="evenodd" clip-rule="evenodd" fill="#FFFFFF" d="M73.198,22.441c0.337-0.004,0.621,0.276,0.613,0.606
		c-0.008,0.309-0.29,0.588-0.599,0.592c-0.318,0.004-0.594-0.26-0.604-0.579C72.597,22.716,72.855,22.445,73.198,22.441z"/>
	<path fill-rule="evenodd" clip-rule="evenodd" fill="#FFFFFF" d="M82.332,23.033c0.003,0.335-0.28,0.615-0.611,0.606
		c-0.311-0.009-0.589-0.289-0.592-0.599c-0.002-0.316,0.266-0.591,0.585-0.6C82.059,22.432,82.329,22.689,82.332,23.033z"/>
	<path fill-rule="evenodd" clip-rule="evenodd" fill="#FFFFFF" d="M73.812,32.19c-0.01,0.326-0.315,0.605-0.639,0.585
		c-0.324-0.019-0.572-0.289-0.564-0.611c0.009-0.345,0.283-0.597,0.63-0.581C73.557,31.598,73.821,31.877,73.812,32.19z"/>
	<path fill-rule="evenodd" clip-rule="evenodd" fill="#FFFFFF" d="M78.065,32.19c-0.007,0.323-0.271,0.585-0.592,0.587
		c-0.335,0.004-0.604-0.275-0.598-0.613c0.009-0.345,0.282-0.597,0.626-0.581C77.828,31.598,78.072,31.862,78.065,32.19z"/>
	<path fill-rule="evenodd" clip-rule="evenodd" fill="#FFFFFF" d="M82.332,32.164c0.008,0.334-0.269,0.617-0.602,0.613
		c-0.31,0-0.593-0.279-0.602-0.587c-0.008-0.315,0.255-0.593,0.575-0.607C82.05,31.567,82.324,31.819,82.332,32.164z"/>
	<path fill-rule="evenodd" clip-rule="evenodd" fill="#FFFFFF" d="M77.474,22.442c0.342,0.002,0.602,0.273,0.592,0.616
		c-0.01,0.321-0.278,0.581-0.598,0.58c-0.335-0.003-0.602-0.283-0.591-0.622C76.887,22.688,77.143,22.44,77.474,22.442z"/>
	<path fill-rule="evenodd" clip-rule="evenodd" fill="#FFFFFF" d="M73.81,18.159c0.003,0.315-0.264,0.588-0.583,0.597
		c-0.347,0.011-0.616-0.249-0.618-0.59c0-0.33,0.249-0.589,0.577-0.599C73.519,17.554,73.808,17.829,73.81,18.159z"/>
	<path fill-rule="evenodd" clip-rule="evenodd" fill="#FFFFFF" d="M82.332,18.167c-0.004,0.343-0.274,0.601-0.62,0.589
		c-0.32-0.011-0.585-0.282-0.581-0.599c0.003-0.314,0.276-0.587,0.593-0.593C82.062,17.557,82.334,17.827,82.332,18.167z"/>
	<path fill-rule="evenodd" clip-rule="evenodd" fill="#FFFFFF" d="M90.264,18.755c-0.33,0-0.584-0.249-0.593-0.577
		c-0.007-0.343,0.258-0.614,0.599-0.613c0.332,0.001,0.61,0.288,0.599,0.618C90.856,18.502,90.589,18.756,90.264,18.755z"/>
	<path fill-rule="evenodd" clip-rule="evenodd" fill="#FFFFFF" d="M65.27,27.306c-0.002,0.332-0.253,0.583-0.583,0.59
		c-0.338,0.006-0.618-0.266-0.614-0.599c0.003-0.318,0.271-0.587,0.589-0.593C65,26.696,65.271,26.965,65.27,27.306z"/>
	<path fill-rule="evenodd" clip-rule="evenodd" fill="#FFFFFF" d="M73.81,27.31c-0.005,0.334-0.29,0.598-0.63,0.586
		c-0.331-0.015-0.575-0.271-0.571-0.603c0.004-0.339,0.283-0.602,0.623-0.588C73.549,26.719,73.815,26.996,73.81,27.31z"/>
	<path fill-rule="evenodd" clip-rule="evenodd" fill="#FFFFFF" d="M82.332,27.31c-0.004,0.343-0.276,0.6-0.623,0.586
		c-0.321-0.012-0.584-0.285-0.578-0.603c0.005-0.313,0.278-0.584,0.593-0.589C82.063,26.697,82.336,26.969,82.332,27.31z"/>
	<path fill-rule="evenodd" clip-rule="evenodd" fill="#FFFFFF" d="M90.868,27.314c-0.009,0.335-0.291,0.596-0.634,0.581
		c-0.328-0.017-0.568-0.276-0.563-0.607c0.007-0.339,0.286-0.599,0.626-0.582C90.617,26.722,90.876,26.998,90.868,27.314z"/>
	<path fill-rule="evenodd" clip-rule="evenodd" fill="#FFFFFF" d="M64.674,22.441c0.344,0.001,0.604,0.267,0.596,0.611
		c-0.007,0.32-0.276,0.586-0.595,0.586c-0.328,0.001-0.612-0.29-0.603-0.617C64.084,22.699,64.349,22.441,64.674,22.441z"/>
	<path fill-rule="evenodd" clip-rule="evenodd" fill="#FFFFFF" d="M90.254,22.442c0.338-0.007,0.618,0.267,0.614,0.6
		c-0.002,0.312-0.276,0.59-0.589,0.598c-0.316,0.009-0.594-0.255-0.607-0.572C89.656,22.721,89.91,22.45,90.254,22.442z"/>
	<path fill-rule="evenodd" clip-rule="evenodd" fill="#FFFFFF" d="M65.27,32.16c0.008,0.338-0.265,0.621-0.597,0.617
		c-0.313,0-0.593-0.273-0.602-0.583c-0.009-0.317,0.25-0.597,0.57-0.611C64.987,31.567,65.26,31.815,65.27,32.16z"/>
	<path fill-rule="evenodd" clip-rule="evenodd" fill="#FFFFFF" d="M77.499,17.566c0.339,0.016,0.587,0.3,0.563,0.642
		c-0.022,0.325-0.289,0.561-0.62,0.546c-0.339-0.015-0.587-0.295-0.562-0.64C76.902,17.792,77.174,17.551,77.499,17.566z"/>
	<path fill-rule="evenodd" clip-rule="evenodd" fill="#FFFFFF" d="M78.064,27.302c0,0.328-0.249,0.585-0.578,0.594
		c-0.343,0.009-0.611-0.253-0.61-0.595c0.001-0.327,0.253-0.585,0.578-0.595C77.794,26.696,78.064,26.963,78.064,27.302z"/>
</g>
</svg>
