<?xml version="1.0" encoding="utf-8"?>
<!-- Generator: Adobe Illustrator 16.0.0, SVG Export Plug-In . SVG Version: 6.00 Build 0)  -->
<!DOCTYPE svg PUBLIC "-//W3C//DTD SVG 1.1//EN" "http://www.w3.org/Graphics/SVG/1.1/DTD/svg11.dtd">
<svg version="1.1" id="Layer_1" xmlns="http://www.w3.org/2000/svg" xmlns:xlink="http://www.w3.org/1999/xlink" x="0px" y="0px"
	 width="100px" height="40px" viewBox="0 0 100 40" enable-background="new 0 0 100 40" xml:space="preserve">
<g>
	<path fill-rule="evenodd" clip-rule="evenodd" fill="#666666" d="M21.667,43.994c0.237,0,0.475,0,0.713,0
		c0.563,0.146,1.113,0.313,1.568,0.707c0.215,0.186,0.448,0.356,0.693,0.496c3.17,1.801,6.343,3.595,9.521,5.382
		c0.145,0.082,0.335,0.116,0.504,0.116c1.88,0.011,3.758,0.009,5.637,0.011c0,9.949,0,19.898,0,29.847c-12.187,0-24.373,0-36.56,0
		c0-9.948,0-19.897,0-29.847c1.878-0.002,3.757,0,5.636-0.011c0.169,0,0.359-0.035,0.504-0.116c2.361-1.3,4.722-2.603,7.072-3.923
		c0.932-0.523,1.871-1.047,2.744-1.656C20.319,44.567,20.913,44.137,21.667,43.994z M4.976,79.311c11.382,0,22.738,0,34.085,0
		c0-7.722,0-15.413,0-23.103c-11.375,0-22.722,0-34.085,0C4.976,63.915,4.976,71.599,4.976,79.311z M39.07,51.942
		c-11.379,0-22.733,0-34.082,0c0,1.016,0,2.007,0,3.003c11.375,0,22.719,0,34.082,0C39.07,53.939,39.07,52.955,39.07,51.942z
		 M12.328,50.67c6.49,0,12.908,0,19.392,0c-2.242-1.268-4.421-2.5-6.642-3.756c-0.021,0.871-0.273,1.625-0.867,2.23
		c-0.592,0.605-1.317,0.924-2.169,0.931c-0.677,0.007-1.29-0.195-1.829-0.601c-0.836-0.63-1.216-1.496-1.243-2.561
		C16.75,48.17,14.571,49.401,12.328,50.67z M22.006,48.859c1.004,0.008,1.817-0.783,1.841-1.788
		c0.021-0.985-0.834-1.858-1.824-1.857c-0.975,0-1.813,0.838-1.825,1.821C20.188,48.022,21.01,48.852,22.006,48.859z"/>
	<path fill-rule="evenodd" clip-rule="evenodd" fill="#666666" d="M13.479,65.334c0.338-0.006,0.618,0.266,0.616,0.6
		c-0.001,0.314-0.271,0.591-0.588,0.599c-0.327,0.01-0.619-0.279-0.618-0.606C12.892,65.606,13.157,65.34,13.479,65.334z"/>
	<path fill-rule="evenodd" clip-rule="evenodd" fill="#666666" d="M31.158,65.929c0,0.328-0.294,0.614-0.621,0.604
		c-0.317-0.011-0.585-0.286-0.585-0.603c0-0.334,0.28-0.604,0.619-0.596C30.893,65.343,31.158,65.61,31.158,65.929z"/>
	<path fill-rule="evenodd" clip-rule="evenodd" fill="#666666" d="M14.095,75.078c-0.004,0.313-0.277,0.59-0.592,0.592
		c-0.326,0.011-0.618-0.281-0.614-0.606c0.005-0.336,0.29-0.6,0.629-0.588C13.841,74.488,14.1,74.756,14.095,75.078z"/>
	<path fill-rule="evenodd" clip-rule="evenodd" fill="#666666" d="M31.158,61.07c-0.01,0.336-0.295,0.594-0.637,0.577
		c-0.325-0.017-0.577-0.286-0.569-0.608c0.01-0.332,0.3-0.598,0.635-0.58C30.909,60.479,31.166,60.753,31.158,61.07z"/>
	<path fill-rule="evenodd" clip-rule="evenodd" fill="#666666" d="M14.095,70.194c0,0.319-0.258,0.585-0.583,0.594
		c-0.34,0.01-0.622-0.259-0.623-0.592c0-0.317,0.265-0.588,0.585-0.599C13.807,69.587,14.093,69.861,14.095,70.194z"/>
	<path fill-rule="evenodd" clip-rule="evenodd" fill="#666666" d="M31.158,70.193c0.001,0.318-0.262,0.586-0.583,0.595
		c-0.341,0.01-0.621-0.257-0.622-0.592c-0.001-0.318,0.26-0.587,0.582-0.598C30.869,69.587,31.156,69.861,31.158,70.193z"/>
	<path fill-rule="evenodd" clip-rule="evenodd" fill="#666666" d="M17.752,65.334c0.337-0.004,0.62,0.277,0.613,0.606
		c-0.007,0.309-0.29,0.589-0.599,0.593c-0.318,0.004-0.593-0.261-0.604-0.58C17.15,65.609,17.409,65.338,17.752,65.334z"/>
	<path fill-rule="evenodd" clip-rule="evenodd" fill="#666666" d="M26.885,65.926c0.003,0.335-0.279,0.616-0.611,0.607
		c-0.311-0.009-0.589-0.29-0.592-0.6c-0.001-0.315,0.266-0.591,0.584-0.6C26.612,65.324,26.882,65.582,26.885,65.926z"/>
	<path fill-rule="evenodd" clip-rule="evenodd" fill="#666666" d="M18.365,75.084c-0.01,0.326-0.314,0.604-0.639,0.584
		c-0.324-0.018-0.572-0.289-0.564-0.61c0.008-0.345,0.282-0.598,0.628-0.582C18.111,74.491,18.375,74.77,18.365,75.084z"/>
	<path fill-rule="evenodd" clip-rule="evenodd" fill="#666666" d="M22.619,75.084c-0.007,0.323-0.272,0.584-0.592,0.586
		c-0.334,0.004-0.604-0.274-0.598-0.612c0.008-0.345,0.283-0.598,0.627-0.582C22.381,74.491,22.626,74.756,22.619,75.084z"/>
	<path fill-rule="evenodd" clip-rule="evenodd" fill="#666666" d="M26.885,75.058c0.008,0.334-0.268,0.616-0.601,0.612
		c-0.31,0-0.593-0.278-0.602-0.586c-0.008-0.316,0.255-0.593,0.575-0.608C26.604,74.46,26.877,74.713,26.885,75.058z"/>
	<path fill-rule="evenodd" clip-rule="evenodd" fill="#666666" d="M22.027,65.335c0.341,0.002,0.602,0.274,0.592,0.616
		c-0.009,0.321-0.278,0.582-0.598,0.581c-0.335-0.003-0.602-0.284-0.59-0.623C21.44,65.58,21.697,65.333,22.027,65.335z"/>
	<path fill-rule="evenodd" clip-rule="evenodd" fill="#666666" d="M18.363,61.053c0.002,0.315-0.264,0.587-0.584,0.596
		c-0.346,0.012-0.616-0.248-0.617-0.59c-0.001-0.33,0.249-0.589,0.576-0.6C18.072,60.447,18.361,60.722,18.363,61.053z"/>
	<path fill-rule="evenodd" clip-rule="evenodd" fill="#666666" d="M26.885,61.061c-0.003,0.343-0.273,0.6-0.62,0.588
		c-0.321-0.011-0.586-0.282-0.582-0.599c0.003-0.313,0.277-0.587,0.593-0.594C26.615,60.45,26.887,60.72,26.885,61.061z"/>
	<path fill-rule="evenodd" clip-rule="evenodd" fill="#666666" d="M34.817,61.648c-0.331-0.001-0.584-0.249-0.593-0.578
		c-0.007-0.342,0.258-0.614,0.598-0.612c0.333,0.001,0.61,0.287,0.599,0.617C35.409,61.395,35.143,61.648,34.817,61.648z"/>
	<path fill-rule="evenodd" clip-rule="evenodd" fill="#666666" d="M9.823,70.199c-0.002,0.332-0.252,0.582-0.583,0.589
		c-0.339,0.006-0.618-0.265-0.614-0.598c0.003-0.319,0.27-0.587,0.589-0.593C9.554,69.59,9.825,69.857,9.823,70.199z"/>
	<path fill-rule="evenodd" clip-rule="evenodd" fill="#666666" d="M18.363,70.203c-0.005,0.334-0.29,0.597-0.629,0.585
		c-0.332-0.015-0.576-0.271-0.571-0.602c0.004-0.339,0.282-0.602,0.622-0.588C18.102,69.612,18.368,69.889,18.363,70.203z"/>
	<path fill-rule="evenodd" clip-rule="evenodd" fill="#666666" d="M26.885,70.203c-0.004,0.343-0.275,0.599-0.623,0.585
		c-0.321-0.012-0.584-0.284-0.579-0.602c0.005-0.314,0.279-0.584,0.594-0.589C26.618,69.591,26.889,69.861,26.885,70.203z"/>
	<path fill-rule="evenodd" clip-rule="evenodd" fill="#666666" d="M35.421,70.208c-0.009,0.335-0.291,0.595-0.633,0.58
		c-0.328-0.017-0.57-0.275-0.564-0.606c0.007-0.339,0.286-0.6,0.626-0.582C35.171,69.615,35.429,69.891,35.421,70.208z"/>
	<path fill-rule="evenodd" clip-rule="evenodd" fill="#666666" d="M9.228,65.334c0.344,0.001,0.604,0.268,0.596,0.612
		c-0.007,0.319-0.276,0.586-0.595,0.586c-0.329,0.001-0.613-0.291-0.603-0.618C8.637,65.592,8.902,65.334,9.228,65.334z"/>
	<path fill-rule="evenodd" clip-rule="evenodd" fill="#666666" d="M34.807,65.335c0.338-0.007,0.619,0.268,0.615,0.6
		c-0.002,0.312-0.277,0.591-0.589,0.599c-0.317,0.009-0.594-0.256-0.607-0.572C34.21,65.614,34.464,65.343,34.807,65.335z"/>
	<path fill-rule="evenodd" clip-rule="evenodd" fill="#666666" d="M9.822,75.054c0.008,0.338-0.264,0.62-0.596,0.616
		c-0.313,0-0.592-0.272-0.601-0.582c-0.009-0.318,0.25-0.597,0.57-0.612C9.541,74.46,9.813,74.709,9.822,75.054z"/>
	<path fill-rule="evenodd" clip-rule="evenodd" fill="#666666" d="M22.053,60.459c0.338,0.017,0.587,0.301,0.563,0.643
		c-0.023,0.324-0.291,0.561-0.621,0.547c-0.339-0.015-0.586-0.296-0.562-0.64C21.455,60.686,21.728,60.443,22.053,60.459z"/>
	<path fill-rule="evenodd" clip-rule="evenodd" fill="#666666" d="M22.618,70.195c0,0.328-0.25,0.584-0.577,0.593
		c-0.344,0.009-0.612-0.252-0.612-0.594c0.001-0.328,0.252-0.585,0.578-0.595C22.347,69.59,22.618,69.855,22.618,70.195z"/>
</g>
<g>
	<path fill-rule="evenodd" clip-rule="evenodd" fill="#FFFFFF" d="M77.114,43c0.236,0,0.476,0,0.713,0
		c0.563,0.146,1.112,0.313,1.567,0.707c0.216,0.185,0.448,0.355,0.693,0.496c3.171,1.8,6.343,3.594,9.521,5.381
		c0.146,0.082,0.336,0.117,0.505,0.117c1.879,0.01,3.757,0.008,5.636,0.01c0,9.949,0,19.899,0,29.847c-12.187,0-24.373,0-36.56,0
		c0-9.947,0-19.897,0-29.847c1.879-0.002,3.758,0,5.636-0.01c0.169,0,0.359-0.036,0.505-0.117c2.361-1.3,4.723-2.603,7.073-3.922
		c0.931-0.523,1.869-1.047,2.743-1.657C75.766,43.572,76.359,43.143,77.114,43z M60.422,78.316c11.383,0,22.738,0,34.086,0
		c0-7.723,0-15.413,0-23.104c-11.375,0-22.722,0-34.086,0C60.422,62.921,60.422,70.604,60.422,78.316z M94.517,50.947
		c-11.379,0-22.733,0-34.082,0c0,1.016,0,2.008,0,3.003c11.375,0,22.719,0,34.082,0C94.517,52.945,94.517,51.961,94.517,50.947z
		 M67.774,49.676c6.489,0,12.908,0,19.392,0c-2.241-1.268-4.42-2.5-6.642-3.757c-0.021,0.871-0.273,1.626-0.867,2.231
		c-0.592,0.605-1.316,0.923-2.169,0.93c-0.677,0.007-1.289-0.195-1.829-0.601c-0.836-0.63-1.216-1.496-1.243-2.56
		C72.196,47.176,70.018,48.406,67.774,49.676z M77.453,47.864c1.004,0.009,1.817-0.782,1.841-1.788
		c0.021-0.984-0.834-1.858-1.823-1.857c-0.975,0-1.813,0.838-1.825,1.822C75.635,47.027,76.456,47.857,77.453,47.864z"/>
	<path fill-rule="evenodd" clip-rule="evenodd" fill="#FFFFFF" d="M68.926,64.34c0.338-0.006,0.617,0.265,0.615,0.6
		c-0.002,0.314-0.271,0.59-0.588,0.598c-0.327,0.01-0.618-0.278-0.617-0.605C68.339,64.611,68.604,64.346,68.926,64.34z"/>
	<path fill-rule="evenodd" clip-rule="evenodd" fill="#FFFFFF" d="M86.604,64.935c0.001,0.328-0.294,0.613-0.62,0.603
		c-0.316-0.011-0.585-0.285-0.585-0.602c0-0.335,0.279-0.604,0.619-0.596C86.34,64.349,86.604,64.615,86.604,64.935z"/>
	<path fill-rule="evenodd" clip-rule="evenodd" fill="#FFFFFF" d="M69.541,74.083c-0.004,0.313-0.276,0.591-0.592,0.593
		c-0.325,0.011-0.617-0.281-0.613-0.607c0.005-0.336,0.29-0.599,0.629-0.587C69.288,73.494,69.546,73.761,69.541,74.083z"/>
	<path fill-rule="evenodd" clip-rule="evenodd" fill="#FFFFFF" d="M86.604,60.076c-0.01,0.336-0.294,0.594-0.636,0.576
		c-0.325-0.016-0.578-0.286-0.569-0.607c0.01-0.333,0.299-0.599,0.635-0.58C86.355,59.483,86.612,59.758,86.604,60.076z"/>
	<path fill-rule="evenodd" clip-rule="evenodd" fill="#FFFFFF" d="M69.541,69.199c0,0.319-0.258,0.586-0.582,0.595
		c-0.341,0.01-0.622-0.26-0.623-0.593c0-0.316,0.265-0.588,0.585-0.599C69.254,68.592,69.539,68.866,69.541,69.199z"/>
	<path fill-rule="evenodd" clip-rule="evenodd" fill="#FFFFFF" d="M86.604,69.198c0.001,0.318-0.261,0.587-0.583,0.596
		c-0.341,0.01-0.62-0.258-0.621-0.593c-0.001-0.317,0.26-0.587,0.582-0.598C86.315,68.592,86.603,68.867,86.604,69.198z"/>
	<path fill-rule="evenodd" clip-rule="evenodd" fill="#FFFFFF" d="M73.198,64.34c0.337-0.004,0.621,0.276,0.613,0.606
		c-0.008,0.309-0.29,0.588-0.599,0.592c-0.318,0.004-0.594-0.26-0.604-0.579C72.597,64.614,72.855,64.344,73.198,64.34z"/>
	<path fill-rule="evenodd" clip-rule="evenodd" fill="#FFFFFF" d="M82.332,64.932c0.003,0.335-0.28,0.615-0.611,0.606
		c-0.311-0.009-0.589-0.289-0.592-0.599c-0.002-0.316,0.266-0.591,0.585-0.6C82.059,64.33,82.329,64.588,82.332,64.932z"/>
	<path fill-rule="evenodd" clip-rule="evenodd" fill="#FFFFFF" d="M73.812,74.089c-0.01,0.326-0.315,0.605-0.639,0.585
		c-0.324-0.019-0.572-0.289-0.564-0.611c0.009-0.345,0.283-0.597,0.63-0.581C73.557,73.496,73.821,73.775,73.812,74.089z"/>
	<path fill-rule="evenodd" clip-rule="evenodd" fill="#FFFFFF" d="M78.065,74.089c-0.007,0.323-0.271,0.585-0.592,0.587
		c-0.335,0.004-0.604-0.275-0.598-0.613c0.009-0.345,0.282-0.597,0.626-0.581C77.828,73.496,78.072,73.761,78.065,74.089z"/>
	<path fill-rule="evenodd" clip-rule="evenodd" fill="#FFFFFF" d="M82.332,74.063c0.008,0.334-0.269,0.617-0.602,0.613
		c-0.31,0-0.593-0.279-0.602-0.587c-0.008-0.315,0.255-0.593,0.575-0.607C82.05,73.466,82.324,73.718,82.332,74.063z"/>
	<path fill-rule="evenodd" clip-rule="evenodd" fill="#FFFFFF" d="M77.474,64.341c0.342,0.002,0.602,0.273,0.592,0.616
		c-0.01,0.321-0.278,0.581-0.598,0.58c-0.335-0.003-0.602-0.283-0.591-0.622C76.887,64.586,77.143,64.339,77.474,64.341z"/>
	<path fill-rule="evenodd" clip-rule="evenodd" fill="#FFFFFF" d="M73.81,60.058c0.003,0.315-0.264,0.588-0.583,0.597
		c-0.347,0.011-0.616-0.249-0.618-0.59c0-0.33,0.249-0.59,0.577-0.6C73.519,59.453,73.808,59.727,73.81,60.058z"/>
	<path fill-rule="evenodd" clip-rule="evenodd" fill="#FFFFFF" d="M82.332,60.065c-0.004,0.343-0.274,0.601-0.62,0.589
		c-0.32-0.011-0.585-0.282-0.581-0.6c0.003-0.313,0.276-0.587,0.593-0.593C82.062,59.455,82.334,59.725,82.332,60.065z"/>
	<path fill-rule="evenodd" clip-rule="evenodd" fill="#FFFFFF" d="M90.264,60.653c-0.33-0.001-0.584-0.249-0.593-0.577
		c-0.007-0.343,0.258-0.614,0.599-0.613c0.332,0.001,0.61,0.287,0.599,0.617C90.856,60.4,90.589,60.654,90.264,60.653z"/>
	<path fill-rule="evenodd" clip-rule="evenodd" fill="#FFFFFF" d="M65.27,69.204c-0.002,0.332-0.253,0.583-0.583,0.59
		c-0.338,0.006-0.618-0.266-0.614-0.599c0.003-0.318,0.271-0.587,0.589-0.593C65,68.595,65.271,68.863,65.27,69.204z"/>
	<path fill-rule="evenodd" clip-rule="evenodd" fill="#FFFFFF" d="M73.81,69.208c-0.005,0.334-0.29,0.598-0.63,0.586
		c-0.331-0.015-0.575-0.271-0.571-0.603c0.004-0.339,0.283-0.602,0.623-0.588C73.549,68.617,73.815,68.895,73.81,69.208z"/>
	<path fill-rule="evenodd" clip-rule="evenodd" fill="#FFFFFF" d="M82.332,69.208c-0.004,0.343-0.276,0.6-0.623,0.586
		c-0.321-0.012-0.584-0.285-0.578-0.603c0.005-0.313,0.278-0.584,0.593-0.589C82.063,68.596,82.336,68.867,82.332,69.208z"/>
	<path fill-rule="evenodd" clip-rule="evenodd" fill="#FFFFFF" d="M90.868,69.213c-0.009,0.335-0.291,0.596-0.634,0.581
		c-0.328-0.017-0.568-0.276-0.563-0.607c0.007-0.339,0.286-0.599,0.626-0.582C90.617,68.62,90.876,68.896,90.868,69.213z"/>
	<path fill-rule="evenodd" clip-rule="evenodd" fill="#FFFFFF" d="M64.674,64.34c0.344,0.001,0.604,0.267,0.596,0.611
		c-0.007,0.32-0.276,0.586-0.595,0.586c-0.328,0.001-0.612-0.29-0.603-0.617C64.084,64.598,64.349,64.34,64.674,64.34z"/>
	<path fill-rule="evenodd" clip-rule="evenodd" fill="#FFFFFF" d="M90.254,64.341c0.338-0.007,0.618,0.267,0.614,0.6
		c-0.002,0.312-0.276,0.59-0.589,0.598c-0.316,0.009-0.594-0.255-0.607-0.572C89.656,64.619,89.91,64.349,90.254,64.341z"/>
	<path fill-rule="evenodd" clip-rule="evenodd" fill="#FFFFFF" d="M65.27,74.059c0.008,0.338-0.265,0.621-0.597,0.617
		c-0.313,0-0.593-0.273-0.602-0.583c-0.009-0.317,0.25-0.597,0.57-0.611C64.987,73.466,65.26,73.714,65.27,74.059z"/>
	<path fill-rule="evenodd" clip-rule="evenodd" fill="#FFFFFF" d="M77.499,59.465c0.339,0.016,0.587,0.3,0.563,0.643
		c-0.022,0.324-0.289,0.561-0.62,0.546c-0.339-0.015-0.587-0.296-0.562-0.64C76.902,59.69,77.174,59.449,77.499,59.465z"/>
	<path fill-rule="evenodd" clip-rule="evenodd" fill="#FFFFFF" d="M78.064,69.2c0,0.328-0.249,0.585-0.578,0.594
		c-0.343,0.009-0.611-0.253-0.61-0.595c0.001-0.327,0.253-0.585,0.578-0.595C77.794,68.595,78.064,68.861,78.064,69.2z"/>
</g>
<g>
	<path fill-rule="evenodd" clip-rule="evenodd" fill="#666666" d="M23.256,1c0.648,0.164,1.262,0.383,1.789,0.828
		c1.11,0.937,1.508,2.581,0.922,3.934c-0.602,1.394-2.094,2.257-3.548,2.052c-1.475-0.207-2.572-1.182-2.932-2.604
		c-0.333-1.318,0.18-2.756,1.373-3.572C21.305,1.334,21.871,1.208,22.382,1C22.674,1,22.964,1,23.256,1z M22.838,2.225
		c-1.229-0.008-2.207,0.95-2.217,2.168c-0.01,1.232,0.94,2.211,2.16,2.225c1.254,0.013,2.23-0.942,2.233-2.186
		C25.016,3.2,24.063,2.233,22.838,2.225z"/>
	<path fill-rule="evenodd" clip-rule="evenodd" fill="#666666" d="M22.382,38.311c-0.663-0.164-1.299-0.377-1.815-0.854
		c-1.005-0.928-1.396-2.072-1.057-3.391c0.36-1.404,1.292-2.307,2.736-2.531c2.664-0.416,4.681,2.037,3.764,4.572
		c-0.416,1.15-1.293,1.842-2.484,2.133c-0.068,0.016-0.132,0.047-0.198,0.07C23.013,38.311,22.697,38.311,22.382,38.311z
		 M22.813,37.088c1.225,0.004,2.199-0.961,2.205-2.184c0.005-1.23-0.951-2.203-2.173-2.211c-1.252-0.008-2.223,0.953-2.221,2.197
		C20.625,36.119,21.586,37.084,22.813,37.088z"/>
	<path fill-rule="evenodd" clip-rule="evenodd" fill="#666666" d="M16.042,19.677c-0.008-3.74,3.039-6.796,6.775-6.799
		c3.719-0.002,6.77,3.04,6.778,6.757c0.009,3.738-3.04,6.797-6.775,6.797C19.101,26.434,16.05,23.393,16.042,19.677z M19.028,23.682
		c0.052-0.082,0.091-0.145,0.125-0.203c0.451-0.811,1.121-1.309,2.059-1.35c0.994-0.041,1.989-0.041,2.985-0.035
		c0.648,0.008,1.252,0.205,1.724,0.664c0.271,0.264,0.483,0.59,0.721,0.889c2.133-1.76,2.32-5.483,0.373-7.627
		c-2.217-2.441-5.858-2.569-8.126-0.286C16.688,17.945,16.736,21.605,19.028,23.682z M22.792,25.205
		c0.889,0.008,1.725-0.209,2.525-0.588c0.217-0.105,0.245-0.225,0.16-0.428c-0.237-0.566-0.673-0.863-1.268-0.877
		c-0.921-0.023-1.845-0.021-2.766-0.002c-0.62,0.012-1.112,0.381-1.293,0.895c-0.067,0.191-0.041,0.307,0.157,0.404
		C21.092,24.99,21.914,25.207,22.792,25.205z"/>
	<path fill-rule="evenodd" clip-rule="evenodd" fill="#666666" d="M36.21,15.453c-1.75,0.171-3.44-1.263-3.612-3.066
		c-0.187-1.945,1.221-3.578,3.25-3.769c1.697-0.159,3.398,1.275,3.571,3.038C39.615,13.655,38.13,15.352,36.21,15.453z
		 M38.207,12.031c-0.013-1.242-1.001-2.225-2.222-2.21c-1.215,0.015-2.182,1.023-2.169,2.264c0.014,1.205,1.024,2.194,2.223,2.172
		C37.248,14.236,38.22,13.238,38.207,12.031z"/>
	<path fill-rule="evenodd" clip-rule="evenodd" fill="#666666" d="M6.21,11.985c0.021-1.867,1.578-3.4,3.431-3.381
		c1.879,0.02,3.428,1.589,3.405,3.45c-0.023,1.898-1.564,3.431-3.435,3.417C7.719,15.457,6.188,13.887,6.21,11.985z M7.432,12.001
		c-0.017,1.236,0.951,2.24,2.178,2.256c1.183,0.016,2.195-0.965,2.213-2.144c0.019-1.265-0.945-2.278-2.178-2.292
		C8.44,9.808,7.448,10.786,7.432,12.001z"/>
	<path fill-rule="evenodd" clip-rule="evenodd" fill="#666666" d="M6.21,27.311c-0.021-1.891,1.54-3.479,3.414-3.471
		c1.887,0.004,3.4,1.521,3.421,3.428c0.021,1.84-1.505,3.393-3.38,3.439C7.816,30.752,6.231,29.193,6.21,27.311z M7.432,27.268
		c0.006,1.244,0.991,2.234,2.21,2.223c1.203-0.012,2.186-1.01,2.181-2.215c-0.003-1.24-0.995-2.234-2.212-2.221
		C8.404,25.066,7.426,26.061,7.432,27.268z"/>
	<path fill-rule="evenodd" clip-rule="evenodd" fill="#666666" d="M39.428,27.32c-0.021,1.867-1.574,3.402-3.429,3.387
		c-1.894-0.018-3.429-1.586-3.407-3.484c0.021-1.863,1.571-3.391,3.431-3.383C37.913,23.846,39.451,25.422,39.428,27.32z
		 M38.207,27.295c0.016-1.211-0.945-2.211-2.154-2.24c-1.199-0.029-2.222,0.957-2.237,2.156c-0.018,1.26,0.958,2.275,2.191,2.279
		C37.215,29.492,38.19,28.52,38.207,27.295z"/>
	<path fill-rule="evenodd" clip-rule="evenodd" fill="#666666" d="M13.101,14.75c0.209-0.364,0.397-0.687,0.609-1.055
		c0.932,0.537,1.849,1.066,2.788,1.608c-0.207,0.358-0.398,0.69-0.607,1.054C14.958,15.819,14.048,15.296,13.101,14.75z"/>
	<path fill-rule="evenodd" clip-rule="evenodd" fill="#666666" d="M13.711,25.617c-0.21-0.367-0.396-0.689-0.606-1.053
		c0.92-0.533,1.828-1.057,2.785-1.613c0.202,0.348,0.397,0.686,0.61,1.053C15.569,24.541,14.659,25.068,13.711,25.617z"/>
	<path fill-rule="evenodd" clip-rule="evenodd" fill="#666666" d="M29.138,15.306c0.941-0.544,1.843-1.065,2.787-1.611
		c0.202,0.349,0.398,0.688,0.608,1.053c-0.936,0.54-1.845,1.066-2.788,1.61C29.542,16.005,29.35,15.673,29.138,15.306z"/>
	<path fill-rule="evenodd" clip-rule="evenodd" fill="#666666" d="M29.745,22.951c0.944,0.545,1.847,1.064,2.786,1.605
		c-0.207,0.357-0.401,0.695-0.608,1.055c-0.939-0.541-1.849-1.068-2.785-1.609C29.344,23.646,29.534,23.316,29.745,22.951z"/>
	<path fill-rule="evenodd" clip-rule="evenodd" fill="#666666" d="M23.403,8.822c0,1.071,0,2.108,0,3.163c-0.389,0-0.759,0-1.16,0
		c0-1.049,0-2.093,0-3.163C22.618,8.822,22.998,8.822,23.403,8.822z"/>
	<path fill-rule="evenodd" clip-rule="evenodd" fill="#666666" d="M22.21,30.488c0-1.01,0-1.988,0.001-2.969
		c0-0.059,0.013-0.117,0.021-0.191c0.394,0,0.773,0,1.171,0c0,1.059,0,2.096,0,3.16C23.011,30.488,22.622,30.488,22.21,30.488z"/>
	<path fill-rule="evenodd" clip-rule="evenodd" fill="#666666" d="M16.709,5.044c0.425-0.161,0.828-0.313,1.273-0.482
		c0.126,0.388,0.246,0.757,0.375,1.16c-0.403,0.149-0.781,0.29-1.183,0.438C17.016,5.779,16.869,5.426,16.709,5.044z"/>
	<path fill-rule="evenodd" clip-rule="evenodd" fill="#666666" d="M7.102,21.668c0.418-0.051,0.786-0.096,1.202-0.148
		c0.074,0.416,0.144,0.811,0.219,1.234c-0.399,0.088-0.771,0.172-1.186,0.264C7.259,22.57,7.187,22.148,7.102,21.668z"/>
	<path fill-rule="evenodd" clip-rule="evenodd" fill="#666666" d="M38.532,17.642c-0.414,0.051-0.791,0.096-1.2,0.146
		c-0.074-0.421-0.141-0.809-0.216-1.231c0.399-0.088,0.781-0.172,1.189-0.262C38.383,16.757,38.454,17.18,38.532,17.642z"/>
	<path fill-rule="evenodd" clip-rule="evenodd" fill="#666666" d="M38.304,23.014c-0.407-0.09-0.788-0.174-1.188-0.262
		c0.075-0.418,0.142-0.807,0.216-1.229c0.407,0.051,0.783,0.096,1.194,0.146C38.45,22.131,38.379,22.553,38.304,23.014z"/>
	<path fill-rule="evenodd" clip-rule="evenodd" fill="#666666" d="M7.333,16.297c0.402,0.088,0.774,0.169,1.185,0.259
		c-0.07,0.412-0.138,0.806-0.209,1.229c-0.405-0.047-0.772-0.089-1.194-0.138C7.189,17.19,7.258,16.759,7.333,16.297z"/>
	<path fill-rule="evenodd" clip-rule="evenodd" fill="#666666" d="M27.281,33.588c0.414-0.152,0.783-0.289,1.182-0.438
		c0.157,0.371,0.306,0.725,0.469,1.111c-0.434,0.166-0.842,0.32-1.278,0.486C27.526,34.354,27.41,33.99,27.281,33.588z"/>
	<path fill-rule="evenodd" clip-rule="evenodd" fill="#666666" d="M30.142,5.596c0.407,0.238,0.779,0.456,1.181,0.692
		c-0.227,0.355-0.433,0.678-0.649,1.017c-0.372-0.212-0.716-0.409-1.093-0.624C29.761,6.333,29.936,5.994,30.142,5.596z"/>
	<path fill-rule="evenodd" clip-rule="evenodd" fill="#666666" d="M28.928,5.04c-0.166,0.393-0.311,0.736-0.469,1.112
		c-0.391-0.142-0.762-0.276-1.177-0.427c0.124-0.388,0.241-0.76,0.368-1.158C28.083,4.727,28.487,4.877,28.928,5.04z"/>
	<path fill-rule="evenodd" clip-rule="evenodd" fill="#666666" d="M16.06,32.635c-0.193,0.367-0.367,0.697-0.564,1.074
		c-0.391-0.227-0.762-0.439-1.182-0.682c0.226-0.355,0.435-0.684,0.651-1.023C15.342,32.219,15.686,32.42,16.06,32.635z"/>
	<path fill-rule="evenodd" clip-rule="evenodd" fill="#666666" d="M17.986,34.746c-0.443-0.166-0.838-0.313-1.271-0.475
		c0.153-0.371,0.299-0.723,0.461-1.113c0.398,0.145,0.778,0.283,1.181,0.43C18.231,33.982,18.115,34.346,17.986,34.746z"/>
	<path fill-rule="evenodd" clip-rule="evenodd" fill="#666666" d="M31.684,8.022c0.26-0.339,0.487-0.636,0.74-0.966
		c0.348,0.29,0.679,0.565,1.041,0.866c-0.268,0.299-0.522,0.584-0.808,0.902C32.334,8.558,32.021,8.3,31.684,8.022z"/>
	<path fill-rule="evenodd" clip-rule="evenodd" fill="#666666" d="M13.949,8.02c-0.319,0.268-0.624,0.522-0.963,0.807
		c-0.271-0.297-0.533-0.586-0.817-0.898c0.352-0.294,0.683-0.57,1.043-0.87C13.465,7.389,13.698,7.692,13.949,8.02z"/>
	<path fill-rule="evenodd" clip-rule="evenodd" fill="#666666" d="M12.985,30.484c0.338,0.283,0.637,0.531,0.966,0.805
		c-0.239,0.314-0.47,0.619-0.733,0.967c-0.352-0.291-0.689-0.572-1.046-0.871C12.45,31.076,12.707,30.793,12.985,30.484z"/>
	<path fill-rule="evenodd" clip-rule="evenodd" fill="#666666" d="M33.471,31.383c-0.356,0.297-0.687,0.57-1.044,0.869
		c-0.256-0.334-0.487-0.637-0.738-0.965c0.321-0.268,0.626-0.52,0.962-0.801C32.917,30.777,33.176,31.059,33.471,31.383z"/>
	<path fill-rule="evenodd" clip-rule="evenodd" fill="#666666" d="M14.311,6.284c0.413-0.237,0.778-0.446,1.176-0.673
		c0.195,0.364,0.375,0.7,0.571,1.064c-0.364,0.213-0.715,0.417-1.09,0.636C14.751,6.973,14.545,6.651,14.311,6.284z"/>
	<path fill-rule="evenodd" clip-rule="evenodd" fill="#666666" d="M31.328,33.027c-0.428,0.244-0.792,0.453-1.18,0.672
		c-0.195-0.365-0.371-0.695-0.567-1.061c0.355-0.211,0.704-0.416,1.092-0.645C30.888,32.334,31.098,32.664,31.328,33.027z"/>
	<path fill-rule="evenodd" clip-rule="evenodd" fill="#666666" d="M7.009,20.289c0-0.421,0-0.837,0-1.275c0.388,0,0.756,0,1.16,0
		c0,0.42,0,0.832,0,1.275C7.796,20.289,7.428,20.289,7.009,20.289z"/>
	<path fill-rule="evenodd" clip-rule="evenodd" fill="#666666" d="M37.451,20.294c0-0.442,0-0.838,0-1.27c0.385,0,0.755,0,1.165,0
		c0,0.402,0,0.829,0,1.27C38.234,20.294,37.864,20.294,37.451,20.294z"/>
	<path fill-rule="evenodd" clip-rule="evenodd" fill="#666666" d="M22.824,15.921c1.463,0.005,2.628,1.171,2.633,2.635
		c0.003,1.47-1.196,2.657-2.663,2.642c-1.466-0.016-2.625-1.194-2.613-2.652C20.193,17.082,21.368,15.916,22.824,15.921z
		 M22.823,19.98c0.8-0.002,1.431-0.641,1.418-1.437c-0.012-0.781-0.637-1.408-1.411-1.418c-0.776-0.01-1.439,0.646-1.444,1.428
		C21.381,19.339,22.029,19.983,22.823,19.98z"/>
</g>
<g>
	<path fill-rule="evenodd" clip-rule="evenodd" fill="#FFFFFF" d="M78.497,1c0.647,0.164,1.263,0.383,1.789,0.828
		c1.11,0.937,1.509,2.581,0.923,3.934c-0.603,1.394-2.095,2.257-3.549,2.052c-1.475-0.207-2.572-1.182-2.932-2.604
		c-0.334-1.318,0.18-2.756,1.372-3.572C76.545,1.334,77.111,1.208,77.623,1C77.914,1,78.205,1,78.497,1z M78.078,2.225
		c-1.229-0.008-2.206,0.95-2.217,2.168c-0.01,1.232,0.939,2.211,2.16,2.225c1.254,0.013,2.23-0.942,2.232-2.186
		C80.257,3.2,79.303,2.233,78.078,2.225z"/>
	<path fill-rule="evenodd" clip-rule="evenodd" fill="#FFFFFF" d="M77.623,38.311c-0.662-0.164-1.299-0.377-1.814-0.854
		c-1.006-0.928-1.396-2.072-1.058-3.391c0.36-1.404,1.292-2.307,2.736-2.531c2.663-0.416,4.681,2.037,3.765,4.572
		c-0.416,1.15-1.293,1.842-2.484,2.133c-0.068,0.016-0.133,0.047-0.197,0.07C78.254,38.311,77.938,38.311,77.623,38.311z
		 M78.053,37.088c1.225,0.004,2.199-0.961,2.205-2.184c0.006-1.23-0.95-2.203-2.172-2.211c-1.252-0.008-2.223,0.953-2.222,2.197
		C75.865,36.119,76.826,37.084,78.053,37.088z"/>
	<path fill-rule="evenodd" clip-rule="evenodd" fill="#FFFFFF" d="M71.283,19.677c-0.008-3.74,3.039-6.796,6.775-6.799
		c3.719-0.002,6.77,3.04,6.777,6.757c0.01,3.738-3.039,6.797-6.774,6.797C74.342,26.434,71.291,23.393,71.283,19.677z
		 M74.269,23.682c0.052-0.082,0.091-0.145,0.124-0.203c0.451-0.811,1.121-1.309,2.059-1.35c0.994-0.041,1.99-0.041,2.986-0.035
		c0.647,0.008,1.252,0.205,1.723,0.664c0.271,0.264,0.483,0.59,0.722,0.889c2.134-1.76,2.32-5.483,0.372-7.627
		c-2.217-2.441-5.857-2.569-8.126-0.286C71.93,17.945,71.977,21.605,74.269,23.682z M78.033,25.205
		c0.889,0.008,1.725-0.209,2.524-0.588c0.218-0.105,0.245-0.225,0.159-0.428c-0.236-0.566-0.672-0.863-1.268-0.877
		c-0.922-0.023-1.845-0.021-2.766-0.002c-0.62,0.012-1.112,0.381-1.293,0.895c-0.067,0.191-0.041,0.307,0.156,0.404
		C76.333,24.99,77.154,25.207,78.033,25.205z"/>
	<path fill-rule="evenodd" clip-rule="evenodd" fill="#FFFFFF" d="M91.451,15.453c-1.75,0.171-3.439-1.263-3.612-3.066
		c-0.187-1.945,1.222-3.578,3.249-3.769c1.697-0.159,3.398,1.275,3.572,3.038C94.855,13.655,93.371,15.352,91.451,15.453z
		 M93.447,12.031c-0.014-1.242-1.001-2.225-2.223-2.21c-1.215,0.015-2.182,1.023-2.169,2.264c0.014,1.205,1.024,2.194,2.223,2.172
		C92.488,14.236,93.461,13.238,93.447,12.031z"/>
	<path fill-rule="evenodd" clip-rule="evenodd" fill="#FFFFFF" d="M61.451,11.985c0.021-1.867,1.577-3.4,3.43-3.381
		c1.879,0.02,3.428,1.589,3.406,3.45c-0.023,1.898-1.564,3.431-3.436,3.417C62.959,15.457,61.428,13.887,61.451,11.985z
		 M62.672,12.001c-0.017,1.236,0.951,2.24,2.178,2.256c1.184,0.016,2.195-0.965,2.214-2.144c0.019-1.265-0.944-2.278-2.179-2.292
		C63.682,9.808,62.688,10.786,62.672,12.001z"/>
	<path fill-rule="evenodd" clip-rule="evenodd" fill="#FFFFFF" d="M61.451,27.311c-0.021-1.891,1.539-3.479,3.414-3.471
		c1.887,0.004,3.4,1.521,3.422,3.428c0.02,1.84-1.506,3.393-3.381,3.439C63.057,30.752,61.472,29.193,61.451,27.311z M62.673,27.268
		c0.006,1.244,0.991,2.234,2.21,2.223c1.203-0.012,2.186-1.01,2.182-2.215c-0.004-1.24-0.995-2.234-2.213-2.221
		C63.645,25.066,62.667,26.061,62.673,27.268z"/>
	<path fill-rule="evenodd" clip-rule="evenodd" fill="#FFFFFF" d="M94.669,27.32c-0.021,1.867-1.573,3.402-3.429,3.387
		c-1.895-0.018-3.43-1.586-3.407-3.484c0.021-1.863,1.571-3.391,3.431-3.383C93.153,23.846,94.691,25.422,94.669,27.32z
		 M93.447,27.295c0.016-1.211-0.945-2.211-2.154-2.24c-1.199-0.029-2.221,0.957-2.236,2.156c-0.018,1.26,0.959,2.275,2.191,2.279
		C92.455,29.492,93.432,28.52,93.447,27.295z"/>
	<path fill-rule="evenodd" clip-rule="evenodd" fill="#FFFFFF" d="M68.342,14.75c0.209-0.364,0.396-0.687,0.609-1.055
		c0.932,0.537,1.848,1.066,2.787,1.608c-0.207,0.358-0.398,0.69-0.607,1.054C70.198,15.819,69.289,15.296,68.342,14.75z"/>
	<path fill-rule="evenodd" clip-rule="evenodd" fill="#FFFFFF" d="M68.952,25.617c-0.21-0.367-0.396-0.689-0.606-1.053
		c0.92-0.533,1.828-1.057,2.785-1.613c0.202,0.348,0.398,0.686,0.61,1.053C70.81,24.541,69.9,25.068,68.952,25.617z"/>
	<path fill-rule="evenodd" clip-rule="evenodd" fill="#FFFFFF" d="M84.379,15.306c0.941-0.544,1.843-1.065,2.787-1.611
		c0.201,0.349,0.397,0.688,0.607,1.053c-0.936,0.54-1.845,1.066-2.787,1.61C84.783,16.005,84.591,15.673,84.379,15.306z"/>
	<path fill-rule="evenodd" clip-rule="evenodd" fill="#FFFFFF" d="M84.986,22.951c0.943,0.545,1.846,1.064,2.785,1.605
		c-0.207,0.357-0.4,0.695-0.607,1.055c-0.939-0.541-1.85-1.068-2.785-1.609C84.584,23.646,84.775,23.316,84.986,22.951z"/>
	<path fill-rule="evenodd" clip-rule="evenodd" fill="#FFFFFF" d="M78.645,8.822c0,1.071,0,2.108,0,3.163c-0.389,0-0.76,0-1.16,0
		c0-1.049,0-2.093,0-3.163C77.859,8.822,78.238,8.822,78.645,8.822z"/>
	<path fill-rule="evenodd" clip-rule="evenodd" fill="#FFFFFF" d="M77.451,30.488c0-1.01,0-1.988,0.001-2.969
		c0-0.059,0.013-0.117,0.021-0.191c0.394,0,0.773,0,1.171,0c0,1.059,0,2.096,0,3.16C78.252,30.488,77.862,30.488,77.451,30.488z"/>
	<path fill-rule="evenodd" clip-rule="evenodd" fill="#FFFFFF" d="M71.95,5.044c0.425-0.161,0.827-0.313,1.272-0.482
		c0.127,0.388,0.246,0.757,0.376,1.16c-0.403,0.149-0.78,0.29-1.183,0.438C72.257,5.779,72.109,5.426,71.95,5.044z"/>
	<path fill-rule="evenodd" clip-rule="evenodd" fill="#FFFFFF" d="M62.342,21.668c0.418-0.051,0.786-0.096,1.202-0.148
		c0.073,0.416,0.144,0.811,0.22,1.234c-0.4,0.088-0.771,0.172-1.186,0.264C62.5,22.57,62.428,22.148,62.342,21.668z"/>
	<path fill-rule="evenodd" clip-rule="evenodd" fill="#FFFFFF" d="M93.772,17.642c-0.413,0.051-0.79,0.096-1.2,0.146
		c-0.074-0.421-0.141-0.809-0.216-1.231c0.399-0.088,0.78-0.172,1.189-0.262C93.623,16.757,93.695,17.18,93.772,17.642z"/>
	<path fill-rule="evenodd" clip-rule="evenodd" fill="#FFFFFF" d="M93.545,23.014c-0.408-0.09-0.788-0.174-1.188-0.262
		c0.075-0.418,0.142-0.807,0.216-1.229c0.407,0.051,0.783,0.096,1.193,0.146C93.69,22.131,93.619,22.553,93.545,23.014z"/>
	<path fill-rule="evenodd" clip-rule="evenodd" fill="#FFFFFF" d="M62.574,16.297c0.401,0.088,0.773,0.169,1.185,0.259
		c-0.07,0.412-0.138,0.806-0.209,1.229c-0.405-0.047-0.772-0.089-1.194-0.138C62.43,17.19,62.499,16.759,62.574,16.297z"/>
	<path fill-rule="evenodd" clip-rule="evenodd" fill="#FFFFFF" d="M82.521,33.588c0.414-0.152,0.783-0.289,1.182-0.438
		c0.156,0.371,0.306,0.725,0.469,1.111c-0.434,0.166-0.842,0.32-1.277,0.486C82.768,34.354,82.65,33.99,82.521,33.588z"/>
	<path fill-rule="evenodd" clip-rule="evenodd" fill="#FFFFFF" d="M85.383,5.596c0.406,0.238,0.779,0.456,1.181,0.692
		c-0.228,0.355-0.433,0.678-0.649,1.017c-0.371-0.212-0.715-0.409-1.093-0.624C85.002,6.333,85.177,5.994,85.383,5.596z"/>
	<path fill-rule="evenodd" clip-rule="evenodd" fill="#FFFFFF" d="M84.169,5.04c-0.165,0.393-0.311,0.736-0.47,1.112
		c-0.391-0.142-0.762-0.276-1.176-0.427c0.123-0.388,0.24-0.76,0.367-1.158C83.323,4.727,83.729,4.877,84.169,5.04z"/>
	<path fill-rule="evenodd" clip-rule="evenodd" fill="#FFFFFF" d="M71.301,32.635c-0.193,0.367-0.367,0.697-0.564,1.074
		c-0.391-0.227-0.763-0.439-1.182-0.682c0.225-0.355,0.435-0.684,0.65-1.023C70.583,32.219,70.927,32.42,71.301,32.635z"/>
	<path fill-rule="evenodd" clip-rule="evenodd" fill="#FFFFFF" d="M73.227,34.746c-0.442-0.166-0.838-0.313-1.271-0.475
		c0.153-0.371,0.299-0.723,0.461-1.113c0.398,0.145,0.778,0.283,1.181,0.43C73.473,33.982,73.355,34.346,73.227,34.746z"/>
	<path fill-rule="evenodd" clip-rule="evenodd" fill="#FFFFFF" d="M86.925,8.022c0.261-0.339,0.487-0.636,0.74-0.966
		c0.348,0.29,0.679,0.565,1.04,0.866c-0.268,0.299-0.521,0.584-0.807,0.902C87.574,8.558,87.262,8.3,86.925,8.022z"/>
	<path fill-rule="evenodd" clip-rule="evenodd" fill="#FFFFFF" d="M69.189,8.02c-0.319,0.268-0.623,0.522-0.963,0.807
		c-0.271-0.297-0.533-0.586-0.817-0.898c0.353-0.294,0.683-0.57,1.043-0.87C68.705,7.389,68.938,7.692,69.189,8.02z"/>
	<path fill-rule="evenodd" clip-rule="evenodd" fill="#FFFFFF" d="M68.226,30.484c0.339,0.283,0.637,0.531,0.966,0.805
		c-0.239,0.314-0.47,0.619-0.733,0.967c-0.353-0.291-0.688-0.572-1.046-0.871C67.691,31.076,67.947,30.793,68.226,30.484z"/>
	<path fill-rule="evenodd" clip-rule="evenodd" fill="#FFFFFF" d="M88.711,31.383c-0.355,0.297-0.686,0.57-1.043,0.869
		c-0.256-0.334-0.488-0.637-0.738-0.965c0.321-0.268,0.626-0.52,0.962-0.801C88.158,30.777,88.417,31.059,88.711,31.383z"/>
	<path fill-rule="evenodd" clip-rule="evenodd" fill="#FFFFFF" d="M69.551,6.284c0.414-0.237,0.779-0.446,1.177-0.673
		c0.195,0.364,0.376,0.7,0.571,1.064c-0.365,0.213-0.715,0.417-1.09,0.636C69.992,6.973,69.786,6.651,69.551,6.284z"/>
	<path fill-rule="evenodd" clip-rule="evenodd" fill="#FFFFFF" d="M86.568,33.027c-0.428,0.244-0.792,0.453-1.18,0.672
		c-0.195-0.365-0.371-0.695-0.566-1.061c0.354-0.211,0.703-0.416,1.092-0.645C86.129,32.334,86.338,32.664,86.568,33.027z"/>
	<path fill-rule="evenodd" clip-rule="evenodd" fill="#FFFFFF" d="M62.25,20.289c0-0.421,0-0.837,0-1.275c0.389,0,0.756,0,1.16,0
		c0,0.42,0,0.832,0,1.275C63.037,20.289,62.668,20.289,62.25,20.289z"/>
	<path fill-rule="evenodd" clip-rule="evenodd" fill="#FFFFFF" d="M92.691,20.294c0-0.442,0-0.838,0-1.27c0.385,0,0.756,0,1.165,0
		c0,0.402,0,0.829,0,1.27C93.475,20.294,93.104,20.294,92.691,20.294z"/>
	<path fill-rule="evenodd" clip-rule="evenodd" fill="#FFFFFF" d="M78.064,15.921c1.463,0.005,2.629,1.171,2.633,2.635
		c0.004,1.47-1.195,2.657-2.662,2.642c-1.466-0.016-2.625-1.194-2.613-2.652C75.434,17.082,76.608,15.916,78.064,15.921z
		 M78.064,19.98c0.8-0.002,1.43-0.641,1.418-1.437c-0.012-0.781-0.637-1.408-1.411-1.418c-0.776-0.01-1.438,0.646-1.444,1.428
		C76.622,19.339,77.27,19.983,78.064,19.98z"/>
</g>
</svg>
