<?xml version="1.0" encoding="utf-8"?>
<!-- Generator: Adobe Illustrator 16.0.0, SVG Export Plug-In . SVG Version: 6.00 Build 0)  -->
<!DOCTYPE svg PUBLIC "-//W3C//DTD SVG 1.1//EN" "http://www.w3.org/Graphics/SVG/1.1/DTD/svg11.dtd">
<svg version="1.1" id="Layer_1" xmlns="http://www.w3.org/2000/svg" xmlns:xlink="http://www.w3.org/1999/xlink" x="0px" y="0px"
	 width="100px" height="40px" viewBox="0 0 100 40" enable-background="new 0 0 100 40" xml:space="preserve">
<g>
	<path fill-rule="evenodd" clip-rule="evenodd" fill="#666666" d="M21.667,43.994c0.237,0,0.475,0,0.713,0
		c0.563,0.146,1.113,0.313,1.568,0.707c0.215,0.186,0.448,0.356,0.693,0.496c3.17,1.801,6.343,3.595,9.521,5.382
		c0.145,0.082,0.335,0.116,0.504,0.116c1.88,0.011,3.758,0.009,5.637,0.011c0,9.949,0,19.898,0,29.847c-12.187,0-24.373,0-36.56,0
		c0-9.948,0-19.897,0-29.847c1.878-0.002,3.757,0,5.636-0.011c0.169,0,0.359-0.035,0.504-0.116c2.361-1.3,4.722-2.603,7.072-3.923
		c0.932-0.523,1.871-1.047,2.744-1.656C20.319,44.567,20.913,44.137,21.667,43.994z M4.976,79.311c11.382,0,22.738,0,34.085,0
		c0-7.722,0-15.413,0-23.103c-11.375,0-22.722,0-34.085,0C4.976,63.915,4.976,71.599,4.976,79.311z M39.07,51.942
		c-11.379,0-22.733,0-34.082,0c0,1.016,0,2.007,0,3.003c11.375,0,22.719,0,34.082,0C39.07,53.939,39.07,52.955,39.07,51.942z
		 M12.328,50.67c6.49,0,12.908,0,19.392,0c-2.242-1.268-4.421-2.5-6.642-3.756c-0.021,0.871-0.273,1.625-0.867,2.23
		c-0.592,0.605-1.317,0.924-2.169,0.931c-0.677,0.007-1.29-0.195-1.829-0.601c-0.836-0.63-1.216-1.496-1.243-2.561
		C16.75,48.17,14.571,49.401,12.328,50.67z M22.006,48.859c1.004,0.008,1.817-0.783,1.841-1.788
		c0.021-0.985-0.834-1.858-1.824-1.857c-0.975,0-1.813,0.838-1.825,1.821C20.188,48.022,21.01,48.852,22.006,48.859z"/>
	<path fill-rule="evenodd" clip-rule="evenodd" fill="#666666" d="M13.479,65.334c0.338-0.006,0.618,0.266,0.616,0.6
		c-0.001,0.314-0.271,0.591-0.588,0.599c-0.327,0.01-0.619-0.279-0.618-0.606C12.892,65.606,13.157,65.34,13.479,65.334z"/>
	<path fill-rule="evenodd" clip-rule="evenodd" fill="#666666" d="M31.158,65.929c0,0.328-0.294,0.614-0.621,0.604
		c-0.317-0.011-0.585-0.286-0.585-0.603c0-0.334,0.28-0.604,0.619-0.596C30.893,65.343,31.158,65.61,31.158,65.929z"/>
	<path fill-rule="evenodd" clip-rule="evenodd" fill="#666666" d="M14.095,75.078c-0.004,0.313-0.277,0.59-0.592,0.592
		c-0.326,0.011-0.618-0.281-0.614-0.606c0.005-0.336,0.29-0.6,0.629-0.588C13.841,74.488,14.1,74.756,14.095,75.078z"/>
	<path fill-rule="evenodd" clip-rule="evenodd" fill="#666666" d="M31.158,61.07c-0.01,0.336-0.295,0.594-0.637,0.577
		c-0.325-0.017-0.577-0.286-0.569-0.608c0.01-0.332,0.3-0.598,0.635-0.58C30.909,60.479,31.166,60.753,31.158,61.07z"/>
	<path fill-rule="evenodd" clip-rule="evenodd" fill="#666666" d="M14.095,70.194c0,0.319-0.258,0.585-0.583,0.594
		c-0.34,0.01-0.622-0.259-0.623-0.592c0-0.317,0.265-0.588,0.585-0.599C13.807,69.587,14.093,69.861,14.095,70.194z"/>
	<path fill-rule="evenodd" clip-rule="evenodd" fill="#666666" d="M31.158,70.193c0.001,0.318-0.262,0.586-0.583,0.595
		c-0.341,0.01-0.621-0.257-0.622-0.592c-0.001-0.318,0.26-0.587,0.582-0.598C30.869,69.587,31.156,69.861,31.158,70.193z"/>
	<path fill-rule="evenodd" clip-rule="evenodd" fill="#666666" d="M17.752,65.334c0.337-0.004,0.62,0.277,0.613,0.606
		c-0.007,0.309-0.29,0.589-0.599,0.593c-0.318,0.004-0.593-0.261-0.604-0.58C17.15,65.609,17.409,65.338,17.752,65.334z"/>
	<path fill-rule="evenodd" clip-rule="evenodd" fill="#666666" d="M26.885,65.926c0.003,0.335-0.279,0.616-0.611,0.607
		c-0.311-0.009-0.589-0.29-0.592-0.6c-0.001-0.315,0.266-0.591,0.584-0.6C26.612,65.324,26.882,65.582,26.885,65.926z"/>
	<path fill-rule="evenodd" clip-rule="evenodd" fill="#666666" d="M18.365,75.084c-0.01,0.326-0.314,0.604-0.639,0.584
		c-0.324-0.018-0.572-0.289-0.564-0.61c0.008-0.345,0.282-0.598,0.628-0.582C18.111,74.491,18.375,74.77,18.365,75.084z"/>
	<path fill-rule="evenodd" clip-rule="evenodd" fill="#666666" d="M22.619,75.084c-0.007,0.323-0.272,0.584-0.592,0.586
		c-0.334,0.004-0.604-0.274-0.598-0.612c0.008-0.345,0.283-0.598,0.627-0.582C22.381,74.491,22.626,74.756,22.619,75.084z"/>
	<path fill-rule="evenodd" clip-rule="evenodd" fill="#666666" d="M26.885,75.058c0.008,0.334-0.268,0.616-0.601,0.612
		c-0.31,0-0.593-0.278-0.602-0.586c-0.008-0.316,0.255-0.593,0.575-0.608C26.604,74.46,26.877,74.713,26.885,75.058z"/>
	<path fill-rule="evenodd" clip-rule="evenodd" fill="#666666" d="M22.027,65.335c0.341,0.002,0.602,0.274,0.592,0.616
		c-0.009,0.321-0.278,0.582-0.598,0.581c-0.335-0.003-0.602-0.284-0.59-0.623C21.44,65.58,21.697,65.333,22.027,65.335z"/>
	<path fill-rule="evenodd" clip-rule="evenodd" fill="#666666" d="M18.363,61.053c0.002,0.315-0.264,0.587-0.584,0.596
		c-0.346,0.012-0.616-0.248-0.617-0.59c-0.001-0.33,0.249-0.589,0.576-0.6C18.072,60.447,18.361,60.722,18.363,61.053z"/>
	<path fill-rule="evenodd" clip-rule="evenodd" fill="#666666" d="M26.885,61.061c-0.003,0.343-0.273,0.6-0.62,0.588
		c-0.321-0.011-0.586-0.282-0.582-0.599c0.003-0.313,0.277-0.587,0.593-0.594C26.615,60.45,26.887,60.72,26.885,61.061z"/>
	<path fill-rule="evenodd" clip-rule="evenodd" fill="#666666" d="M34.817,61.648c-0.331-0.001-0.584-0.249-0.593-0.578
		c-0.007-0.342,0.258-0.614,0.598-0.612c0.333,0.001,0.61,0.287,0.599,0.617C35.409,61.395,35.143,61.648,34.817,61.648z"/>
	<path fill-rule="evenodd" clip-rule="evenodd" fill="#666666" d="M9.823,70.199c-0.002,0.332-0.252,0.582-0.583,0.589
		c-0.339,0.006-0.618-0.265-0.614-0.598c0.003-0.319,0.27-0.587,0.589-0.593C9.554,69.59,9.825,69.857,9.823,70.199z"/>
	<path fill-rule="evenodd" clip-rule="evenodd" fill="#666666" d="M18.363,70.203c-0.005,0.334-0.29,0.597-0.629,0.585
		c-0.332-0.015-0.576-0.271-0.571-0.602c0.004-0.339,0.282-0.602,0.622-0.588C18.102,69.612,18.368,69.889,18.363,70.203z"/>
	<path fill-rule="evenodd" clip-rule="evenodd" fill="#666666" d="M26.885,70.203c-0.004,0.343-0.275,0.599-0.623,0.585
		c-0.321-0.012-0.584-0.284-0.579-0.602c0.005-0.314,0.279-0.584,0.594-0.589C26.618,69.591,26.889,69.861,26.885,70.203z"/>
	<path fill-rule="evenodd" clip-rule="evenodd" fill="#666666" d="M35.421,70.208c-0.009,0.335-0.291,0.595-0.633,0.58
		c-0.328-0.017-0.57-0.275-0.564-0.606c0.007-0.339,0.286-0.6,0.626-0.582C35.171,69.615,35.429,69.891,35.421,70.208z"/>
	<path fill-rule="evenodd" clip-rule="evenodd" fill="#666666" d="M9.228,65.334c0.344,0.001,0.604,0.268,0.596,0.612
		c-0.007,0.319-0.276,0.586-0.595,0.586c-0.329,0.001-0.613-0.291-0.603-0.618C8.637,65.592,8.902,65.334,9.228,65.334z"/>
	<path fill-rule="evenodd" clip-rule="evenodd" fill="#666666" d="M34.807,65.335c0.338-0.007,0.619,0.268,0.615,0.6
		c-0.002,0.312-0.277,0.591-0.589,0.599c-0.317,0.009-0.594-0.256-0.607-0.572C34.21,65.614,34.464,65.343,34.807,65.335z"/>
	<path fill-rule="evenodd" clip-rule="evenodd" fill="#666666" d="M9.822,75.054c0.008,0.338-0.264,0.62-0.596,0.616
		c-0.313,0-0.592-0.272-0.601-0.582c-0.009-0.318,0.25-0.597,0.57-0.612C9.541,74.46,9.813,74.709,9.822,75.054z"/>
	<path fill-rule="evenodd" clip-rule="evenodd" fill="#666666" d="M22.053,60.459c0.338,0.017,0.587,0.301,0.563,0.643
		c-0.023,0.324-0.291,0.561-0.621,0.547c-0.339-0.015-0.586-0.296-0.562-0.64C21.455,60.686,21.728,60.443,22.053,60.459z"/>
	<path fill-rule="evenodd" clip-rule="evenodd" fill="#666666" d="M22.618,70.195c0,0.328-0.25,0.584-0.577,0.593
		c-0.344,0.009-0.612-0.252-0.612-0.594c0.001-0.328,0.252-0.585,0.578-0.595C22.347,69.59,22.618,69.855,22.618,70.195z"/>
</g>
<g>
	<path fill-rule="evenodd" clip-rule="evenodd" fill="#FFFFFF" d="M77.114,43c0.236,0,0.476,0,0.713,0
		c0.563,0.146,1.112,0.313,1.567,0.707c0.216,0.185,0.448,0.355,0.693,0.496c3.171,1.8,6.343,3.594,9.521,5.381
		c0.146,0.082,0.336,0.117,0.505,0.117c1.879,0.01,3.757,0.008,5.636,0.01c0,9.949,0,19.899,0,29.847c-12.187,0-24.373,0-36.56,0
		c0-9.947,0-19.897,0-29.847c1.879-0.002,3.758,0,5.636-0.01c0.169,0,0.359-0.036,0.505-0.117c2.361-1.3,4.723-2.603,7.073-3.922
		c0.931-0.523,1.869-1.047,2.743-1.657C75.766,43.572,76.359,43.143,77.114,43z M60.422,78.316c11.383,0,22.738,0,34.086,0
		c0-7.723,0-15.413,0-23.104c-11.375,0-22.722,0-34.086,0C60.422,62.921,60.422,70.604,60.422,78.316z M94.517,50.947
		c-11.379,0-22.733,0-34.082,0c0,1.016,0,2.008,0,3.003c11.375,0,22.719,0,34.082,0C94.517,52.945,94.517,51.961,94.517,50.947z
		 M67.774,49.676c6.489,0,12.908,0,19.392,0c-2.241-1.268-4.42-2.5-6.642-3.757c-0.021,0.871-0.273,1.626-0.867,2.231
		c-0.592,0.605-1.316,0.923-2.169,0.93c-0.677,0.007-1.289-0.195-1.829-0.601c-0.836-0.63-1.216-1.496-1.243-2.56
		C72.196,47.176,70.018,48.406,67.774,49.676z M77.453,47.864c1.004,0.009,1.817-0.782,1.841-1.788
		c0.021-0.984-0.834-1.858-1.823-1.857c-0.975,0-1.813,0.838-1.825,1.822C75.635,47.027,76.456,47.857,77.453,47.864z"/>
	<path fill-rule="evenodd" clip-rule="evenodd" fill="#FFFFFF" d="M68.926,64.34c0.338-0.006,0.617,0.265,0.615,0.6
		c-0.002,0.314-0.271,0.59-0.588,0.598c-0.327,0.01-0.618-0.278-0.617-0.605C68.339,64.611,68.604,64.346,68.926,64.34z"/>
	<path fill-rule="evenodd" clip-rule="evenodd" fill="#FFFFFF" d="M86.604,64.935c0.001,0.328-0.294,0.613-0.62,0.603
		c-0.316-0.011-0.585-0.285-0.585-0.602c0-0.335,0.279-0.604,0.619-0.596C86.34,64.349,86.604,64.615,86.604,64.935z"/>
	<path fill-rule="evenodd" clip-rule="evenodd" fill="#FFFFFF" d="M69.541,74.083c-0.004,0.313-0.276,0.591-0.592,0.593
		c-0.325,0.011-0.617-0.281-0.613-0.607c0.005-0.336,0.29-0.599,0.629-0.587C69.288,73.494,69.546,73.761,69.541,74.083z"/>
	<path fill-rule="evenodd" clip-rule="evenodd" fill="#FFFFFF" d="M86.604,60.076c-0.01,0.336-0.294,0.594-0.636,0.576
		c-0.325-0.016-0.578-0.286-0.569-0.607c0.01-0.333,0.299-0.599,0.635-0.58C86.355,59.483,86.612,59.758,86.604,60.076z"/>
	<path fill-rule="evenodd" clip-rule="evenodd" fill="#FFFFFF" d="M69.541,69.199c0,0.319-0.258,0.586-0.582,0.595
		c-0.341,0.01-0.622-0.26-0.623-0.593c0-0.316,0.265-0.588,0.585-0.599C69.254,68.592,69.539,68.866,69.541,69.199z"/>
	<path fill-rule="evenodd" clip-rule="evenodd" fill="#FFFFFF" d="M86.604,69.198c0.001,0.318-0.261,0.587-0.583,0.596
		c-0.341,0.01-0.62-0.258-0.621-0.593c-0.001-0.317,0.26-0.587,0.582-0.598C86.315,68.592,86.603,68.867,86.604,69.198z"/>
	<path fill-rule="evenodd" clip-rule="evenodd" fill="#FFFFFF" d="M73.198,64.34c0.337-0.004,0.621,0.276,0.613,0.606
		c-0.008,0.309-0.29,0.588-0.599,0.592c-0.318,0.004-0.594-0.26-0.604-0.579C72.597,64.614,72.855,64.344,73.198,64.34z"/>
	<path fill-rule="evenodd" clip-rule="evenodd" fill="#FFFFFF" d="M82.332,64.932c0.003,0.335-0.28,0.615-0.611,0.606
		c-0.311-0.009-0.589-0.289-0.592-0.599c-0.002-0.316,0.266-0.591,0.585-0.6C82.059,64.33,82.329,64.588,82.332,64.932z"/>
	<path fill-rule="evenodd" clip-rule="evenodd" fill="#FFFFFF" d="M73.812,74.089c-0.01,0.326-0.315,0.605-0.639,0.585
		c-0.324-0.019-0.572-0.289-0.564-0.611c0.009-0.345,0.283-0.597,0.63-0.581C73.557,73.496,73.821,73.775,73.812,74.089z"/>
	<path fill-rule="evenodd" clip-rule="evenodd" fill="#FFFFFF" d="M78.065,74.089c-0.007,0.323-0.271,0.585-0.592,0.587
		c-0.335,0.004-0.604-0.275-0.598-0.613c0.009-0.345,0.282-0.597,0.626-0.581C77.828,73.496,78.072,73.761,78.065,74.089z"/>
	<path fill-rule="evenodd" clip-rule="evenodd" fill="#FFFFFF" d="M82.332,74.063c0.008,0.334-0.269,0.617-0.602,0.613
		c-0.31,0-0.593-0.279-0.602-0.587c-0.008-0.315,0.255-0.593,0.575-0.607C82.05,73.466,82.324,73.718,82.332,74.063z"/>
	<path fill-rule="evenodd" clip-rule="evenodd" fill="#FFFFFF" d="M77.474,64.341c0.342,0.002,0.602,0.273,0.592,0.616
		c-0.01,0.321-0.278,0.581-0.598,0.58c-0.335-0.003-0.602-0.283-0.591-0.622C76.887,64.586,77.143,64.339,77.474,64.341z"/>
	<path fill-rule="evenodd" clip-rule="evenodd" fill="#FFFFFF" d="M73.81,60.058c0.003,0.315-0.264,0.588-0.583,0.597
		c-0.347,0.011-0.616-0.249-0.618-0.59c0-0.33,0.249-0.59,0.577-0.6C73.519,59.453,73.808,59.727,73.81,60.058z"/>
	<path fill-rule="evenodd" clip-rule="evenodd" fill="#FFFFFF" d="M82.332,60.065c-0.004,0.343-0.274,0.601-0.62,0.589
		c-0.32-0.011-0.585-0.282-0.581-0.6c0.003-0.313,0.276-0.587,0.593-0.593C82.062,59.455,82.334,59.725,82.332,60.065z"/>
	<path fill-rule="evenodd" clip-rule="evenodd" fill="#FFFFFF" d="M90.264,60.653c-0.33-0.001-0.584-0.249-0.593-0.577
		c-0.007-0.343,0.258-0.614,0.599-0.613c0.332,0.001,0.61,0.287,0.599,0.617C90.856,60.4,90.589,60.654,90.264,60.653z"/>
	<path fill-rule="evenodd" clip-rule="evenodd" fill="#FFFFFF" d="M65.27,69.204c-0.002,0.332-0.253,0.583-0.583,0.59
		c-0.338,0.006-0.618-0.266-0.614-0.599c0.003-0.318,0.271-0.587,0.589-0.593C65,68.595,65.271,68.863,65.27,69.204z"/>
	<path fill-rule="evenodd" clip-rule="evenodd" fill="#FFFFFF" d="M73.81,69.208c-0.005,0.334-0.29,0.598-0.63,0.586
		c-0.331-0.015-0.575-0.271-0.571-0.603c0.004-0.339,0.283-0.602,0.623-0.588C73.549,68.617,73.815,68.895,73.81,69.208z"/>
	<path fill-rule="evenodd" clip-rule="evenodd" fill="#FFFFFF" d="M82.332,69.208c-0.004,0.343-0.276,0.6-0.623,0.586
		c-0.321-0.012-0.584-0.285-0.578-0.603c0.005-0.313,0.278-0.584,0.593-0.589C82.063,68.596,82.336,68.867,82.332,69.208z"/>
	<path fill-rule="evenodd" clip-rule="evenodd" fill="#FFFFFF" d="M90.868,69.213c-0.009,0.335-0.291,0.596-0.634,0.581
		c-0.328-0.017-0.568-0.276-0.563-0.607c0.007-0.339,0.286-0.599,0.626-0.582C90.617,68.62,90.876,68.896,90.868,69.213z"/>
	<path fill-rule="evenodd" clip-rule="evenodd" fill="#FFFFFF" d="M64.674,64.34c0.344,0.001,0.604,0.267,0.596,0.611
		c-0.007,0.32-0.276,0.586-0.595,0.586c-0.328,0.001-0.612-0.29-0.603-0.617C64.084,64.598,64.349,64.34,64.674,64.34z"/>
	<path fill-rule="evenodd" clip-rule="evenodd" fill="#FFFFFF" d="M90.254,64.341c0.338-0.007,0.618,0.267,0.614,0.6
		c-0.002,0.312-0.276,0.59-0.589,0.598c-0.316,0.009-0.594-0.255-0.607-0.572C89.656,64.619,89.91,64.349,90.254,64.341z"/>
	<path fill-rule="evenodd" clip-rule="evenodd" fill="#FFFFFF" d="M65.27,74.059c0.008,0.338-0.265,0.621-0.597,0.617
		c-0.313,0-0.593-0.273-0.602-0.583c-0.009-0.317,0.25-0.597,0.57-0.611C64.987,73.466,65.26,73.714,65.27,74.059z"/>
	<path fill-rule="evenodd" clip-rule="evenodd" fill="#FFFFFF" d="M77.499,59.465c0.339,0.016,0.587,0.3,0.563,0.643
		c-0.022,0.324-0.289,0.561-0.62,0.546c-0.339-0.015-0.587-0.296-0.562-0.64C76.902,59.69,77.174,59.449,77.499,59.465z"/>
	<path fill-rule="evenodd" clip-rule="evenodd" fill="#FFFFFF" d="M78.064,69.2c0,0.328-0.249,0.585-0.578,0.594
		c-0.343,0.009-0.611-0.253-0.61-0.595c0.001-0.327,0.253-0.585,0.578-0.595C77.794,68.595,78.064,68.861,78.064,69.2z"/>
</g>
<g>
	<path fill-rule="evenodd" clip-rule="evenodd" fill="#666666" d="M22.546,1.546c1.017,0.265,2.034,0.534,3.053,0.793
		c0.964,0.246,1.932,0.48,2.896,0.726c1.164,0.296,1.861,1.069,1.994,2.268c0.139,1.253,0.239,2.51,0.349,3.765
		c0.03,0.338,0.083,0.627,0.363,0.892c0.484,0.454,0.566,1.112,0.296,1.651c-0.26,0.52-0.489,0.647-1.115,0.584
		c0,0.141,0.006,0.276-0.001,0.413c-0.053,1.041-0.021,2.095-0.182,3.12c-0.294,1.895-1.253,3.457-2.705,4.705
		c-0.257,0.221-0.389,0.439-0.312,0.702c0.516,0.343,1.029,0.613,1.451,0.988c0.289,0.255,0.488,0.638,0.654,0.996
		c0.086,0.188,0.155,0.281,0.353,0.334c1.855,0.489,3.708,0.986,5.56,1.486c1.805,0.488,2.951,1.624,3.381,3.457
		c0.046,0.196,0.073,0.402,0.073,0.604c0.001,1.116,0.02,2.232-0.032,3.346c-0.016,0.338-0.241,0.666-0.361,1.002
		c-0.08,0.227-0.196,0.458-0.208,0.69c-0.03,0.587-0.004,1.177-0.012,1.766c-0.019,1.538-1.08,2.614-2.615,2.614
		c-8.875,0.006-17.751,0.006-26.627,0c-1.534,0-2.592-1.078-2.613-2.616c-0.005-0.373-0.014-0.746,0.002-1.118
		c0.025-0.578-0.009-1.116-0.359-1.635c-0.193-0.288-0.265-0.703-0.271-1.062c-0.019-1.08-0.055-2.168,0.056-3.239
		c0.178-1.718,1.119-2.995,2.743-3.561c1.705-0.596,3.48-0.987,5.225-1.47c0.15-0.041,0.298-0.099,0.451-0.12
		c0.526-0.071,0.957-0.232,1.042-0.857c0.021-0.147,0.147-0.316,0.272-0.413c0.528-0.404,1.076-0.786,1.721-1.253
		c0.058-0.182-0.066-0.411-0.335-0.645c-1.956-1.703-2.873-3.879-2.885-6.456c-0.003-0.587,0-1.173,0-1.806
		c-0.613,0.202-0.917-0.13-1.129-0.591c-0.271-0.59-0.158-1.157,0.287-1.59c0.304-0.296,0.357-0.619,0.39-0.991
		c0.107-1.232,0.208-2.465,0.344-3.693c0.133-1.196,0.832-1.976,1.994-2.268c1.942-0.489,3.886-0.969,5.829-1.455
		c0.042-0.011,0.08-0.042,0.12-0.065C21.969,1.546,22.257,1.546,22.546,1.546z M36.268,26.69c-0.492-0.206-0.896-0.428-1.326-0.548
		c-1.826-0.506-3.662-0.974-5.489-1.478c-0.283-0.078-0.393-0.017-0.517,0.235c-0.777,1.584-1.567,3.159-2.365,4.732
		c-0.315,0.619-0.665,0.668-1.188,0.215c-0.436-0.375-0.868-0.76-1.329-1.103c-0.407-0.302-0.854-0.552-1.347-0.866
		c0,0.231,0,0.359,0,0.49c0,1.777,0.001,3.555,0,5.332c0,0.145,0.007,0.292-0.021,0.432c-0.061,0.317-0.282,0.482-0.588,0.476
		c-0.288-0.006-0.499-0.172-0.555-0.472c-0.026-0.141-0.021-0.287-0.021-0.432c0-1.79,0-3.58,0-5.369c0-0.124,0-0.247,0-0.477
		c-0.575,0.382-1.078,0.685-1.545,1.035c-0.441,0.331-0.839,0.718-1.267,1.065c-0.373,0.304-0.711,0.239-0.961-0.169
		c-0.087-0.144-0.163-0.293-0.239-0.444c-0.746-1.49-1.496-2.979-2.232-4.476c-0.11-0.223-0.21-0.286-0.465-0.216
		c-1.839,0.504-3.686,0.976-5.523,1.487c-0.436,0.123-0.844,0.349-1.264,0.527c-0.008,0.048-0.014,0.097-0.022,0.146
		c0.107,0.078,0.227,0.145,0.319,0.236c0.98,0.974,1.948,1.96,2.935,2.927c0.836,0.818,1.247,1.8,1.24,2.968
		c-0.008,1.284-0.002,2.57-0.002,3.855c0,0.14,0,0.278,0,0.421c6.439,0,12.822,0,19.238,0c0-0.157,0-0.286,0-0.417
		c0-1.153,0.037-2.309-0.01-3.46c-0.061-1.453,0.422-2.635,1.494-3.626C34.238,28.775,35.195,27.761,36.268,26.69z M29.166,12.004
		c-4.72-0.503-9.398-0.504-14.117,0.003c0,0.746-0.008,1.462,0.001,2.18c0.028,2.172,0.855,3.981,2.495,5.412
		c3.403,2.969,8.875,1.844,10.884-2.202C29.282,15.678,29.191,13.869,29.166,12.004z M29.619,8.989
		c-0.012-0.204-0.017-0.358-0.031-0.513c-0.087-0.956-0.183-1.911-0.264-2.868c-0.064-0.765-0.422-1.207-1.173-1.395
		c-1.861-0.468-3.72-0.938-5.585-1.387c-0.27-0.065-0.583-0.08-0.851-0.016c-1.9,0.456-3.794,0.934-5.688,1.414
		c-0.702,0.178-1.063,0.637-1.123,1.363c-0.035,0.43-0.082,0.86-0.12,1.29c-0.061,0.69-0.119,1.379-0.181,2.113
		c2.261-0.822,4.571-1.025,6.918-1.117c0-0.176,0-0.306,0-0.437c0-0.829,0-1.658,0-2.486c0-0.107-0.003-0.217,0.007-0.324
		c0.031-0.348,0.252-0.564,0.575-0.569c0.338-0.005,0.589,0.218,0.594,0.585c0.015,0.949,0.006,1.897,0.01,2.846
		c0,0.127,0.01,0.254,0.016,0.389C25.074,7.966,27.362,8.174,29.619,8.989z M7.117,27.649c-0.118,0.474-0.311,0.949-0.342,1.436
		c-0.058,0.896-0.025,1.8-0.024,2.7c0,0.859,0.3,1.269,1.12,1.543c1.011,0.338,2.022,0.675,3.035,1.011
		c0.119,0.039,0.242,0.066,0.383,0.104c0-0.617,0.019-1.193-0.005-1.768c-0.024-0.591-0.206-1.146-0.63-1.568
		C9.508,29.964,8.34,28.843,7.117,27.649z M32.992,34.422c-0.008-0.002,0.019,0.008,0.039,0.002c1.205-0.402,2.414-0.789,3.61-1.215
		c0.537-0.188,0.821-0.623,0.828-1.193c0.012-1.008,0.016-2.017-0.012-3.025c-0.015-0.475-0.166-0.927-0.449-1.329
		c-1.126,1.118-2.255,2.196-3.323,3.332c-0.321,0.341-0.591,0.825-0.664,1.279C32.911,32.972,32.992,33.701,32.992,34.422z
		 M29.767,10.866c0.06-0.363-0.042-0.574-0.37-0.666c-0.828-0.233-1.64-0.553-2.482-0.706c-2.877-0.524-5.773-0.546-8.67-0.155
		c-1.178,0.159-2.334,0.408-3.44,0.866c-0.312,0.129-0.415,0.315-0.331,0.658C19.563,10.286,24.657,10.284,29.767,10.866z
		 M18.267,21.529c-0.074,0.459-0.026,0.784,0.311,1.105c1.104,1.052,2.167,2.148,3.246,3.226c0.091,0.092,0.187,0.177,0.292,0.274
		c0.102-0.098,0.19-0.178,0.274-0.26c1.095-1.096,2.177-2.207,3.295-3.277c0.332-0.317,0.331-0.638,0.278-1.078
		c-1.23,0.643-2.5,0.951-3.84,0.956C20.772,22.479,19.494,22.151,18.267,21.529z M16.883,22.689
		c-0.146,0.097-0.32,0.201-0.482,0.322c-0.35,0.261-0.439,0.554-0.246,0.944c0.75,1.514,1.514,3.02,2.273,4.53
		c0.009,0.016,0.036,0.024,0.019,0.013c0.858-0.587,1.703-1.165,2.523-1.725C19.632,25.438,18.277,24.081,16.883,22.689z
		 M27.352,22.699c-1.383,1.384-2.746,2.747-4.082,4.084c0.813,0.556,1.658,1.134,2.519,1.724c0.04-0.074,0.098-0.177,0.15-0.282
		c0.633-1.265,1.265-2.528,1.896-3.793C28.349,23.408,28.317,23.299,27.352,22.699z M7.391,34.43c0,0.533-0.008,0.988,0.001,1.443
		c0.018,0.849,0.527,1.357,1.381,1.372c0.732,0.013,1.465,0.005,2.197,0.003c0.103-0.001,0.205-0.019,0.316-0.028
		c0-0.509,0-0.987,0-1.49C10.006,35.303,8.725,34.874,7.391,34.43z M32.93,37.236c0.944,0,1.831,0.018,2.718-0.007
		c0.538-0.013,1.041-0.383,1.111-0.912c0.082-0.603,0.019-1.226,0.019-1.868c-1.234,0.412-2.46,0.818-3.684,1.234
		c-0.068,0.023-0.154,0.126-0.156,0.192C32.923,36.316,32.93,36.759,32.93,37.236z"/>
	<path fill-rule="evenodd" clip-rule="evenodd" fill="#666666" d="M22.101,18.555c-1.16,1.23-3.804,0.75-4.605-0.247
		c-0.168-0.211-0.315-0.456-0.406-0.708c-0.117-0.319,0.053-0.619,0.346-0.733c0.292-0.113,0.579,0.008,0.745,0.317
		c0.035,0.063,0.062,0.13,0.099,0.191c0.208,0.33,0.405,0.346,0.633,0.036c0.163-0.222,0.302-0.461,0.454-0.692
		c0.59-0.896,1.509-1.217,2.534-0.903c0.136,0.042,0.307,0.039,0.443-0.003c0.998-0.309,1.928,0.014,2.508,0.889
		c0.159,0.24,0.303,0.49,0.474,0.722c0.218,0.294,0.409,0.28,0.612-0.03c0.04-0.061,0.067-0.128,0.1-0.192
		c0.175-0.33,0.466-0.455,0.769-0.328c0.304,0.127,0.478,0.451,0.311,0.772c-0.182,0.35-0.408,0.737-0.722,0.949
		c-1.157,0.781-2.414,0.945-3.716,0.363C22.467,18.862,22.291,18.689,22.101,18.555z M19.98,18.042
		c0.861,0.194,1.581-0.353,1.457-1.109C20.776,16.815,20.39,17.11,19.98,18.042z M24.272,18.045
		c-0.58-1.049-0.875-1.261-1.504-1.096C22.742,17.749,23.369,18.217,24.272,18.045z"/>
</g>
<g>
	<path fill-rule="evenodd" clip-rule="evenodd" fill="#FFFFFF" d="M76.769,1.546c1.017,0.265,2.034,0.534,3.053,0.793
		c0.964,0.246,1.932,0.48,2.896,0.726c1.164,0.296,1.861,1.069,1.994,2.268c0.139,1.253,0.238,2.51,0.349,3.765
		c0.03,0.338,0.083,0.627,0.362,0.892c0.484,0.454,0.566,1.112,0.297,1.651c-0.261,0.52-0.49,0.647-1.115,0.584
		c0,0.141,0.006,0.276-0.001,0.413c-0.054,1.041-0.021,2.095-0.183,3.12c-0.294,1.895-1.253,3.457-2.704,4.705
		c-0.257,0.221-0.39,0.439-0.312,0.702c0.516,0.343,1.029,0.613,1.451,0.988c0.289,0.255,0.488,0.638,0.654,0.996
		c0.086,0.188,0.154,0.281,0.352,0.334c1.855,0.489,3.709,0.986,5.561,1.486c1.805,0.488,2.951,1.624,3.381,3.457
		c0.045,0.196,0.072,0.402,0.072,0.604c0.002,1.116,0.02,2.232-0.031,3.346c-0.016,0.338-0.241,0.666-0.361,1.002
		c-0.08,0.227-0.195,0.458-0.207,0.69c-0.031,0.587-0.004,1.177-0.012,1.766c-0.02,1.538-1.08,2.614-2.615,2.614
		c-8.875,0.006-17.752,0.006-26.628,0c-1.534,0-2.593-1.078-2.612-2.616c-0.006-0.373-0.014-0.746,0.002-1.118
		c0.025-0.578-0.01-1.116-0.359-1.635c-0.192-0.288-0.265-0.703-0.271-1.062c-0.019-1.08-0.055-2.168,0.057-3.239
		c0.178-1.718,1.119-2.995,2.742-3.561c1.705-0.596,3.48-0.987,5.226-1.47c0.15-0.041,0.298-0.099,0.451-0.12
		c0.526-0.071,0.956-0.232,1.042-0.857c0.02-0.147,0.146-0.316,0.271-0.413c0.529-0.404,1.076-0.786,1.721-1.253
		c0.059-0.182-0.066-0.411-0.335-0.645c-1.956-1.703-2.872-3.879-2.886-6.456c-0.002-0.587,0-1.173,0-1.806
		c-0.613,0.202-0.917-0.13-1.129-0.591c-0.271-0.59-0.158-1.157,0.287-1.59c0.305-0.296,0.357-0.619,0.39-0.991
		c0.106-1.232,0.208-2.465,0.345-3.693c0.133-1.196,0.832-1.976,1.994-2.268c1.941-0.489,3.885-0.969,5.828-1.455
		c0.043-0.011,0.08-0.042,0.121-0.065C76.191,1.546,76.479,1.546,76.769,1.546z M90.49,26.69c-0.492-0.206-0.896-0.428-1.326-0.548
		c-1.826-0.506-3.662-0.974-5.489-1.478c-0.282-0.078-0.394-0.017-0.517,0.235c-0.777,1.584-1.568,3.159-2.365,4.732
		c-0.316,0.619-0.666,0.668-1.189,0.215c-0.436-0.375-0.867-0.76-1.328-1.103c-0.408-0.302-0.854-0.552-1.348-0.866
		c0,0.231,0,0.359,0,0.49c0,1.777,0.002,3.555,0,5.332c0,0.145,0.007,0.292-0.021,0.432c-0.061,0.317-0.282,0.482-0.588,0.476
		c-0.288-0.006-0.499-0.172-0.555-0.472c-0.026-0.141-0.021-0.287-0.021-0.432c0-1.79,0-3.58,0-5.369c0-0.124,0-0.247,0-0.477
		c-0.576,0.382-1.078,0.685-1.545,1.035c-0.441,0.331-0.84,0.718-1.268,1.065c-0.373,0.304-0.711,0.239-0.961-0.169
		c-0.088-0.144-0.163-0.293-0.238-0.444c-0.746-1.49-1.496-2.979-2.232-4.476c-0.11-0.223-0.21-0.286-0.465-0.216
		c-1.84,0.504-3.686,0.976-5.523,1.487c-0.436,0.123-0.844,0.349-1.264,0.527c-0.008,0.048-0.015,0.097-0.022,0.146
		c0.107,0.078,0.227,0.145,0.319,0.236c0.979,0.974,1.947,1.96,2.935,2.927c0.836,0.818,1.247,1.8,1.239,2.968
		c-0.008,1.284-0.002,2.57-0.002,3.855c0,0.14,0,0.278,0,0.421c6.439,0,12.822,0,19.238,0c0-0.157,0-0.286,0-0.417
		c0-1.153,0.037-2.309-0.01-3.46c-0.061-1.453,0.423-2.635,1.494-3.626C88.461,28.775,89.418,27.761,90.49,26.69z M83.389,12.004
		C78.668,11.5,73.99,11.5,69.271,12.007c0,0.746-0.009,1.462,0.001,2.18c0.028,2.172,0.854,3.981,2.495,5.412
		c3.402,2.969,8.875,1.844,10.884-2.202C83.504,15.678,83.414,13.869,83.389,12.004z M83.842,8.989
		c-0.012-0.204-0.018-0.358-0.031-0.513c-0.087-0.956-0.183-1.911-0.264-2.868c-0.064-0.765-0.422-1.207-1.174-1.395
		c-1.86-0.468-3.72-0.938-5.585-1.387c-0.271-0.065-0.583-0.08-0.851-0.016c-1.9,0.456-3.795,0.934-5.688,1.414
		c-0.702,0.178-1.063,0.637-1.123,1.363c-0.034,0.43-0.082,0.86-0.12,1.29c-0.061,0.69-0.118,1.379-0.181,2.113
		c2.261-0.822,4.571-1.025,6.919-1.117c0-0.176,0-0.306,0-0.437c0-0.829,0-1.658,0-2.486c0-0.107-0.004-0.217,0.006-0.324
		c0.031-0.348,0.253-0.564,0.576-0.569c0.338-0.005,0.588,0.218,0.594,0.585c0.015,0.949,0.006,1.897,0.01,2.846
		c0,0.127,0.01,0.254,0.016,0.389C79.296,7.966,81.584,8.174,83.842,8.989z M61.34,27.649c-0.119,0.474-0.311,0.949-0.342,1.436
		c-0.059,0.896-0.025,1.8-0.025,2.7c0,0.859,0.301,1.269,1.121,1.543c1.011,0.338,2.021,0.675,3.034,1.011
		c0.119,0.039,0.241,0.066,0.384,0.104c0-0.617,0.018-1.193-0.006-1.768c-0.023-0.591-0.205-1.146-0.629-1.568
		C63.73,29.964,62.563,28.843,61.34,27.649z M87.215,34.422c-0.008-0.002,0.019,0.008,0.039,0.002
		c1.204-0.402,2.414-0.789,3.609-1.215c0.537-0.188,0.82-0.623,0.828-1.193c0.012-1.008,0.016-2.017-0.012-3.025
		c-0.016-0.475-0.166-0.927-0.449-1.329c-1.126,1.118-2.256,2.196-3.323,3.332c-0.321,0.341-0.591,0.825-0.663,1.279
		C87.133,32.972,87.215,33.701,87.215,34.422z M83.989,10.866c0.06-0.363-0.042-0.574-0.37-0.666
		c-0.828-0.233-1.639-0.553-2.481-0.706c-2.878-0.524-5.772-0.546-8.67-0.155c-1.178,0.159-2.335,0.408-3.44,0.866
		c-0.313,0.129-0.415,0.315-0.33,0.658C73.785,10.286,78.879,10.284,83.989,10.866z M72.489,21.529
		c-0.073,0.459-0.026,0.784,0.312,1.105c1.104,1.052,2.166,2.148,3.246,3.226c0.09,0.092,0.187,0.177,0.291,0.274
		c0.103-0.098,0.19-0.178,0.275-0.26c1.095-1.096,2.176-2.207,3.295-3.277c0.332-0.317,0.33-0.638,0.277-1.078
		c-1.23,0.643-2.5,0.951-3.84,0.956C74.994,22.479,73.717,22.151,72.489,21.529z M71.105,22.689
		c-0.146,0.097-0.32,0.201-0.482,0.322c-0.35,0.261-0.439,0.554-0.246,0.944c0.75,1.514,1.514,3.02,2.273,4.53
		c0.01,0.016,0.036,0.024,0.02,0.013c0.857-0.587,1.703-1.165,2.522-1.725C73.854,25.438,72.499,24.081,71.105,22.689z
		 M81.574,22.699c-1.383,1.384-2.746,2.747-4.082,4.084c0.813,0.556,1.658,1.134,2.52,1.724c0.04-0.074,0.098-0.177,0.15-0.282
		c0.633-1.265,1.265-2.528,1.896-3.793C82.57,23.408,82.539,23.299,81.574,22.699z M61.613,34.43c0,0.533-0.009,0.988,0.001,1.443
		c0.019,0.849,0.526,1.357,1.381,1.372c0.731,0.013,1.465,0.005,2.197,0.003c0.103-0.001,0.204-0.019,0.315-0.028
		c0-0.509,0-0.987,0-1.49C64.229,35.303,62.947,34.874,61.613,34.43z M87.152,37.236c0.943,0,1.831,0.018,2.719-0.007
		c0.537-0.013,1.04-0.383,1.11-0.912C91.063,35.715,91,35.092,91,34.449c-1.234,0.412-2.46,0.818-3.684,1.234
		c-0.068,0.023-0.154,0.126-0.156,0.192C87.146,36.316,87.152,36.759,87.152,37.236z"/>
	<path fill-rule="evenodd" clip-rule="evenodd" fill="#FFFFFF" d="M76.322,18.555c-1.16,1.23-3.803,0.75-4.605-0.247
		c-0.168-0.211-0.314-0.456-0.405-0.708c-0.116-0.319,0.053-0.619,0.347-0.733c0.291-0.113,0.578,0.008,0.744,0.317
		c0.035,0.063,0.063,0.13,0.1,0.191c0.207,0.33,0.405,0.346,0.633,0.036c0.163-0.222,0.303-0.461,0.453-0.692
		c0.59-0.896,1.51-1.217,2.534-0.903c0.136,0.042,0.307,0.039,0.442-0.003c0.998-0.309,1.928,0.014,2.509,0.889
		c0.159,0.24,0.304,0.49,0.474,0.722c0.219,0.294,0.409,0.28,0.612-0.03c0.04-0.061,0.067-0.128,0.101-0.192
		c0.175-0.33,0.465-0.455,0.769-0.328c0.304,0.127,0.478,0.451,0.312,0.772c-0.183,0.35-0.408,0.737-0.723,0.949
		c-1.156,0.781-2.414,0.945-3.717,0.363C76.689,18.862,76.514,18.689,76.322,18.555z M74.202,18.042
		c0.861,0.194,1.581-0.353,1.457-1.109C74.998,16.815,74.611,17.11,74.202,18.042z M78.494,18.045
		c-0.579-1.049-0.875-1.261-1.504-1.096C76.965,17.749,77.592,18.217,78.494,18.045z"/>
</g>
</svg>
