<?xml version="1.0" encoding="utf-8"?>
<!-- Generator: Adobe Illustrator 16.0.0, SVG Export Plug-In . SVG Version: 6.00 Build 0)  -->
<!DOCTYPE svg PUBLIC "-//W3C//DTD SVG 1.1//EN" "http://www.w3.org/Graphics/SVG/1.1/DTD/svg11.dtd">
<svg version="1.1" id="Layer_1" xmlns="http://www.w3.org/2000/svg" xmlns:xlink="http://www.w3.org/1999/xlink" x="0px" y="0px"
	 width="100px" height="40px" viewBox="0 0 100 40" enable-background="new 0 0 100 40" xml:space="preserve">
<g>
	<path fill-rule="evenodd" clip-rule="evenodd" fill="#666666" d="M21.667,43.994c0.237,0,0.475,0,0.713,0
		c0.563,0.146,1.113,0.313,1.568,0.707c0.215,0.186,0.448,0.356,0.693,0.496c3.17,1.801,6.343,3.595,9.521,5.382
		c0.145,0.082,0.335,0.116,0.504,0.116c1.88,0.011,3.758,0.009,5.637,0.011c0,9.949,0,19.898,0,29.847c-12.187,0-24.373,0-36.56,0
		c0-9.948,0-19.897,0-29.847c1.878-0.002,3.757,0,5.636-0.011c0.169,0,0.359-0.035,0.504-0.116c2.361-1.3,4.722-2.603,7.072-3.923
		c0.932-0.523,1.871-1.047,2.744-1.656C20.319,44.567,20.913,44.137,21.667,43.994z M4.976,79.311c11.382,0,22.738,0,34.085,0
		c0-7.722,0-15.413,0-23.103c-11.375,0-22.722,0-34.085,0C4.976,63.915,4.976,71.599,4.976,79.311z M39.07,51.942
		c-11.379,0-22.733,0-34.082,0c0,1.016,0,2.007,0,3.003c11.375,0,22.719,0,34.082,0C39.07,53.939,39.07,52.955,39.07,51.942z
		 M12.328,50.67c6.49,0,12.908,0,19.392,0c-2.242-1.268-4.421-2.5-6.642-3.756c-0.021,0.871-0.273,1.625-0.867,2.23
		c-0.592,0.605-1.317,0.924-2.169,0.931c-0.677,0.007-1.29-0.195-1.829-0.601c-0.836-0.63-1.216-1.496-1.243-2.561
		C16.75,48.17,14.571,49.401,12.328,50.67z M22.006,48.859c1.004,0.008,1.817-0.783,1.841-1.788
		c0.021-0.985-0.834-1.858-1.824-1.857c-0.975,0-1.813,0.838-1.825,1.821C20.188,48.022,21.01,48.852,22.006,48.859z"/>
	<path fill-rule="evenodd" clip-rule="evenodd" fill="#666666" d="M13.479,65.334c0.338-0.006,0.618,0.266,0.616,0.6
		c-0.001,0.314-0.271,0.591-0.588,0.599c-0.327,0.01-0.619-0.279-0.618-0.606C12.892,65.606,13.157,65.34,13.479,65.334z"/>
	<path fill-rule="evenodd" clip-rule="evenodd" fill="#666666" d="M31.158,65.929c0,0.328-0.294,0.614-0.621,0.604
		c-0.317-0.011-0.585-0.286-0.585-0.603c0-0.334,0.28-0.604,0.619-0.596C30.893,65.343,31.158,65.61,31.158,65.929z"/>
	<path fill-rule="evenodd" clip-rule="evenodd" fill="#666666" d="M14.095,75.078c-0.004,0.313-0.277,0.59-0.592,0.592
		c-0.326,0.011-0.618-0.281-0.614-0.606c0.005-0.336,0.29-0.6,0.629-0.588C13.841,74.488,14.1,74.756,14.095,75.078z"/>
	<path fill-rule="evenodd" clip-rule="evenodd" fill="#666666" d="M31.158,61.07c-0.01,0.336-0.295,0.594-0.637,0.577
		c-0.325-0.017-0.577-0.286-0.569-0.608c0.01-0.332,0.3-0.598,0.635-0.58C30.909,60.479,31.166,60.753,31.158,61.07z"/>
	<path fill-rule="evenodd" clip-rule="evenodd" fill="#666666" d="M14.095,70.194c0,0.319-0.258,0.585-0.583,0.594
		c-0.34,0.01-0.622-0.259-0.623-0.592c0-0.317,0.265-0.588,0.585-0.599C13.807,69.587,14.093,69.861,14.095,70.194z"/>
	<path fill-rule="evenodd" clip-rule="evenodd" fill="#666666" d="M31.158,70.193c0.001,0.318-0.262,0.586-0.583,0.595
		c-0.341,0.01-0.621-0.257-0.622-0.592c-0.001-0.318,0.26-0.587,0.582-0.598C30.869,69.587,31.156,69.861,31.158,70.193z"/>
	<path fill-rule="evenodd" clip-rule="evenodd" fill="#666666" d="M17.752,65.334c0.337-0.004,0.62,0.277,0.613,0.606
		c-0.007,0.309-0.29,0.589-0.599,0.593c-0.318,0.004-0.593-0.261-0.604-0.58C17.15,65.609,17.409,65.338,17.752,65.334z"/>
	<path fill-rule="evenodd" clip-rule="evenodd" fill="#666666" d="M26.885,65.926c0.003,0.335-0.279,0.616-0.611,0.607
		c-0.311-0.009-0.589-0.29-0.592-0.6c-0.001-0.315,0.266-0.591,0.584-0.6C26.612,65.324,26.882,65.582,26.885,65.926z"/>
	<path fill-rule="evenodd" clip-rule="evenodd" fill="#666666" d="M18.365,75.084c-0.01,0.326-0.314,0.604-0.639,0.584
		c-0.324-0.018-0.572-0.289-0.564-0.61c0.008-0.345,0.282-0.598,0.628-0.582C18.111,74.491,18.375,74.77,18.365,75.084z"/>
	<path fill-rule="evenodd" clip-rule="evenodd" fill="#666666" d="M22.619,75.084c-0.007,0.323-0.272,0.584-0.592,0.586
		c-0.334,0.004-0.604-0.274-0.598-0.612c0.008-0.345,0.283-0.598,0.627-0.582C22.381,74.491,22.626,74.756,22.619,75.084z"/>
	<path fill-rule="evenodd" clip-rule="evenodd" fill="#666666" d="M26.885,75.058c0.008,0.334-0.268,0.616-0.601,0.612
		c-0.31,0-0.593-0.278-0.602-0.586c-0.008-0.316,0.255-0.593,0.575-0.608C26.604,74.46,26.877,74.713,26.885,75.058z"/>
	<path fill-rule="evenodd" clip-rule="evenodd" fill="#666666" d="M22.027,65.335c0.341,0.002,0.602,0.274,0.592,0.616
		c-0.009,0.321-0.278,0.582-0.598,0.581c-0.335-0.003-0.602-0.284-0.59-0.623C21.44,65.58,21.697,65.333,22.027,65.335z"/>
	<path fill-rule="evenodd" clip-rule="evenodd" fill="#666666" d="M18.363,61.053c0.002,0.315-0.264,0.587-0.584,0.596
		c-0.346,0.012-0.616-0.248-0.617-0.59c-0.001-0.33,0.249-0.589,0.576-0.6C18.072,60.447,18.361,60.722,18.363,61.053z"/>
	<path fill-rule="evenodd" clip-rule="evenodd" fill="#666666" d="M26.885,61.061c-0.003,0.343-0.273,0.6-0.62,0.588
		c-0.321-0.011-0.586-0.282-0.582-0.599c0.003-0.313,0.277-0.587,0.593-0.594C26.615,60.45,26.887,60.72,26.885,61.061z"/>
	<path fill-rule="evenodd" clip-rule="evenodd" fill="#666666" d="M34.817,61.648c-0.331-0.001-0.584-0.249-0.593-0.578
		c-0.007-0.342,0.258-0.614,0.598-0.612c0.333,0.001,0.61,0.287,0.599,0.617C35.409,61.395,35.143,61.648,34.817,61.648z"/>
	<path fill-rule="evenodd" clip-rule="evenodd" fill="#666666" d="M9.823,70.199c-0.002,0.332-0.252,0.582-0.583,0.589
		c-0.339,0.006-0.618-0.265-0.614-0.598c0.003-0.319,0.27-0.587,0.589-0.593C9.554,69.59,9.825,69.857,9.823,70.199z"/>
	<path fill-rule="evenodd" clip-rule="evenodd" fill="#666666" d="M18.363,70.203c-0.005,0.334-0.29,0.597-0.629,0.585
		c-0.332-0.015-0.576-0.271-0.571-0.602c0.004-0.339,0.282-0.602,0.622-0.588C18.102,69.612,18.368,69.889,18.363,70.203z"/>
	<path fill-rule="evenodd" clip-rule="evenodd" fill="#666666" d="M26.885,70.203c-0.004,0.343-0.275,0.599-0.623,0.585
		c-0.321-0.012-0.584-0.284-0.579-0.602c0.005-0.314,0.279-0.584,0.594-0.589C26.618,69.591,26.889,69.861,26.885,70.203z"/>
	<path fill-rule="evenodd" clip-rule="evenodd" fill="#666666" d="M35.421,70.208c-0.009,0.335-0.291,0.595-0.633,0.58
		c-0.328-0.017-0.57-0.275-0.564-0.606c0.007-0.339,0.286-0.6,0.626-0.582C35.171,69.615,35.429,69.891,35.421,70.208z"/>
	<path fill-rule="evenodd" clip-rule="evenodd" fill="#666666" d="M9.228,65.334c0.344,0.001,0.604,0.268,0.596,0.612
		c-0.007,0.319-0.276,0.586-0.595,0.586c-0.329,0.001-0.613-0.291-0.603-0.618C8.637,65.592,8.902,65.334,9.228,65.334z"/>
	<path fill-rule="evenodd" clip-rule="evenodd" fill="#666666" d="M34.807,65.335c0.338-0.007,0.619,0.268,0.615,0.6
		c-0.002,0.312-0.277,0.591-0.589,0.599c-0.317,0.009-0.594-0.256-0.607-0.572C34.21,65.614,34.464,65.343,34.807,65.335z"/>
	<path fill-rule="evenodd" clip-rule="evenodd" fill="#666666" d="M9.822,75.054c0.008,0.338-0.264,0.62-0.596,0.616
		c-0.313,0-0.592-0.272-0.601-0.582c-0.009-0.318,0.25-0.597,0.57-0.612C9.541,74.46,9.813,74.709,9.822,75.054z"/>
	<path fill-rule="evenodd" clip-rule="evenodd" fill="#666666" d="M22.053,60.459c0.338,0.017,0.587,0.301,0.563,0.643
		c-0.023,0.324-0.291,0.561-0.621,0.547c-0.339-0.015-0.586-0.296-0.562-0.64C21.455,60.686,21.728,60.443,22.053,60.459z"/>
	<path fill-rule="evenodd" clip-rule="evenodd" fill="#666666" d="M22.618,70.195c0,0.328-0.25,0.584-0.577,0.593
		c-0.344,0.009-0.612-0.252-0.612-0.594c0.001-0.328,0.252-0.585,0.578-0.595C22.347,69.59,22.618,69.855,22.618,70.195z"/>
</g>
<g>
	<path fill-rule="evenodd" clip-rule="evenodd" fill="#FFFFFF" d="M77.114,43c0.236,0,0.476,0,0.713,0
		c0.563,0.146,1.112,0.313,1.567,0.707c0.216,0.185,0.448,0.355,0.693,0.496c3.171,1.8,6.343,3.594,9.521,5.381
		c0.146,0.082,0.336,0.117,0.505,0.117c1.879,0.01,3.757,0.008,5.636,0.01c0,9.949,0,19.899,0,29.847c-12.187,0-24.373,0-36.56,0
		c0-9.947,0-19.897,0-29.847c1.879-0.002,3.758,0,5.636-0.01c0.169,0,0.359-0.036,0.505-0.117c2.361-1.3,4.723-2.603,7.073-3.922
		c0.931-0.523,1.869-1.047,2.743-1.657C75.766,43.572,76.359,43.143,77.114,43z M60.422,78.316c11.383,0,22.738,0,34.086,0
		c0-7.723,0-15.413,0-23.104c-11.375,0-22.722,0-34.086,0C60.422,62.921,60.422,70.604,60.422,78.316z M94.517,50.947
		c-11.379,0-22.733,0-34.082,0c0,1.016,0,2.008,0,3.003c11.375,0,22.719,0,34.082,0C94.517,52.945,94.517,51.961,94.517,50.947z
		 M67.774,49.676c6.489,0,12.908,0,19.392,0c-2.241-1.268-4.42-2.5-6.642-3.757c-0.021,0.871-0.273,1.626-0.867,2.231
		c-0.592,0.605-1.316,0.923-2.169,0.93c-0.677,0.007-1.289-0.195-1.829-0.601c-0.836-0.63-1.216-1.496-1.243-2.56
		C72.196,47.176,70.018,48.406,67.774,49.676z M77.453,47.864c1.004,0.009,1.817-0.782,1.841-1.788
		c0.021-0.984-0.834-1.858-1.823-1.857c-0.975,0-1.813,0.838-1.825,1.822C75.635,47.027,76.456,47.857,77.453,47.864z"/>
	<path fill-rule="evenodd" clip-rule="evenodd" fill="#FFFFFF" d="M68.926,64.34c0.338-0.006,0.617,0.265,0.615,0.6
		c-0.002,0.314-0.271,0.59-0.588,0.598c-0.327,0.01-0.618-0.278-0.617-0.605C68.339,64.611,68.604,64.346,68.926,64.34z"/>
	<path fill-rule="evenodd" clip-rule="evenodd" fill="#FFFFFF" d="M86.604,64.935c0.001,0.328-0.294,0.613-0.62,0.603
		c-0.316-0.011-0.585-0.285-0.585-0.602c0-0.335,0.279-0.604,0.619-0.596C86.34,64.349,86.604,64.615,86.604,64.935z"/>
	<path fill-rule="evenodd" clip-rule="evenodd" fill="#FFFFFF" d="M69.541,74.083c-0.004,0.313-0.276,0.591-0.592,0.593
		c-0.325,0.011-0.617-0.281-0.613-0.607c0.005-0.336,0.29-0.599,0.629-0.587C69.288,73.494,69.546,73.761,69.541,74.083z"/>
	<path fill-rule="evenodd" clip-rule="evenodd" fill="#FFFFFF" d="M86.604,60.076c-0.01,0.336-0.294,0.594-0.636,0.576
		c-0.325-0.016-0.578-0.286-0.569-0.607c0.01-0.333,0.299-0.599,0.635-0.58C86.355,59.483,86.612,59.758,86.604,60.076z"/>
	<path fill-rule="evenodd" clip-rule="evenodd" fill="#FFFFFF" d="M69.541,69.199c0,0.319-0.258,0.586-0.582,0.595
		c-0.341,0.01-0.622-0.26-0.623-0.593c0-0.316,0.265-0.588,0.585-0.599C69.254,68.592,69.539,68.866,69.541,69.199z"/>
	<path fill-rule="evenodd" clip-rule="evenodd" fill="#FFFFFF" d="M86.604,69.198c0.001,0.318-0.261,0.587-0.583,0.596
		c-0.341,0.01-0.62-0.258-0.621-0.593c-0.001-0.317,0.26-0.587,0.582-0.598C86.315,68.592,86.603,68.867,86.604,69.198z"/>
	<path fill-rule="evenodd" clip-rule="evenodd" fill="#FFFFFF" d="M73.198,64.34c0.337-0.004,0.621,0.276,0.613,0.606
		c-0.008,0.309-0.29,0.588-0.599,0.592c-0.318,0.004-0.594-0.26-0.604-0.579C72.597,64.614,72.855,64.344,73.198,64.34z"/>
	<path fill-rule="evenodd" clip-rule="evenodd" fill="#FFFFFF" d="M82.332,64.932c0.003,0.335-0.28,0.615-0.611,0.606
		c-0.311-0.009-0.589-0.289-0.592-0.599c-0.002-0.316,0.266-0.591,0.585-0.6C82.059,64.33,82.329,64.588,82.332,64.932z"/>
	<path fill-rule="evenodd" clip-rule="evenodd" fill="#FFFFFF" d="M73.812,74.089c-0.01,0.326-0.315,0.605-0.639,0.585
		c-0.324-0.019-0.572-0.289-0.564-0.611c0.009-0.345,0.283-0.597,0.63-0.581C73.557,73.496,73.821,73.775,73.812,74.089z"/>
	<path fill-rule="evenodd" clip-rule="evenodd" fill="#FFFFFF" d="M78.065,74.089c-0.007,0.323-0.271,0.585-0.592,0.587
		c-0.335,0.004-0.604-0.275-0.598-0.613c0.009-0.345,0.282-0.597,0.626-0.581C77.828,73.496,78.072,73.761,78.065,74.089z"/>
	<path fill-rule="evenodd" clip-rule="evenodd" fill="#FFFFFF" d="M82.332,74.063c0.008,0.334-0.269,0.617-0.602,0.613
		c-0.31,0-0.593-0.279-0.602-0.587c-0.008-0.315,0.255-0.593,0.575-0.607C82.05,73.466,82.324,73.718,82.332,74.063z"/>
	<path fill-rule="evenodd" clip-rule="evenodd" fill="#FFFFFF" d="M77.474,64.341c0.342,0.002,0.602,0.273,0.592,0.616
		c-0.01,0.321-0.278,0.581-0.598,0.58c-0.335-0.003-0.602-0.283-0.591-0.622C76.887,64.586,77.143,64.339,77.474,64.341z"/>
	<path fill-rule="evenodd" clip-rule="evenodd" fill="#FFFFFF" d="M73.81,60.058c0.003,0.315-0.264,0.588-0.583,0.597
		c-0.347,0.011-0.616-0.249-0.618-0.59c0-0.33,0.249-0.59,0.577-0.6C73.519,59.453,73.808,59.727,73.81,60.058z"/>
	<path fill-rule="evenodd" clip-rule="evenodd" fill="#FFFFFF" d="M82.332,60.065c-0.004,0.343-0.274,0.601-0.62,0.589
		c-0.32-0.011-0.585-0.282-0.581-0.6c0.003-0.313,0.276-0.587,0.593-0.593C82.062,59.455,82.334,59.725,82.332,60.065z"/>
	<path fill-rule="evenodd" clip-rule="evenodd" fill="#FFFFFF" d="M90.264,60.653c-0.33-0.001-0.584-0.249-0.593-0.577
		c-0.007-0.343,0.258-0.614,0.599-0.613c0.332,0.001,0.61,0.287,0.599,0.617C90.856,60.4,90.589,60.654,90.264,60.653z"/>
	<path fill-rule="evenodd" clip-rule="evenodd" fill="#FFFFFF" d="M65.27,69.204c-0.002,0.332-0.253,0.583-0.583,0.59
		c-0.338,0.006-0.618-0.266-0.614-0.599c0.003-0.318,0.271-0.587,0.589-0.593C65,68.595,65.271,68.863,65.27,69.204z"/>
	<path fill-rule="evenodd" clip-rule="evenodd" fill="#FFFFFF" d="M73.81,69.208c-0.005,0.334-0.29,0.598-0.63,0.586
		c-0.331-0.015-0.575-0.271-0.571-0.603c0.004-0.339,0.283-0.602,0.623-0.588C73.549,68.617,73.815,68.895,73.81,69.208z"/>
	<path fill-rule="evenodd" clip-rule="evenodd" fill="#FFFFFF" d="M82.332,69.208c-0.004,0.343-0.276,0.6-0.623,0.586
		c-0.321-0.012-0.584-0.285-0.578-0.603c0.005-0.313,0.278-0.584,0.593-0.589C82.063,68.596,82.336,68.867,82.332,69.208z"/>
	<path fill-rule="evenodd" clip-rule="evenodd" fill="#FFFFFF" d="M90.868,69.213c-0.009,0.335-0.291,0.596-0.634,0.581
		c-0.328-0.017-0.568-0.276-0.563-0.607c0.007-0.339,0.286-0.599,0.626-0.582C90.617,68.62,90.876,68.896,90.868,69.213z"/>
	<path fill-rule="evenodd" clip-rule="evenodd" fill="#FFFFFF" d="M64.674,64.34c0.344,0.001,0.604,0.267,0.596,0.611
		c-0.007,0.32-0.276,0.586-0.595,0.586c-0.328,0.001-0.612-0.29-0.603-0.617C64.084,64.598,64.349,64.34,64.674,64.34z"/>
	<path fill-rule="evenodd" clip-rule="evenodd" fill="#FFFFFF" d="M90.254,64.341c0.338-0.007,0.618,0.267,0.614,0.6
		c-0.002,0.312-0.276,0.59-0.589,0.598c-0.316,0.009-0.594-0.255-0.607-0.572C89.656,64.619,89.91,64.349,90.254,64.341z"/>
	<path fill-rule="evenodd" clip-rule="evenodd" fill="#FFFFFF" d="M65.27,74.059c0.008,0.338-0.265,0.621-0.597,0.617
		c-0.313,0-0.593-0.273-0.602-0.583c-0.009-0.317,0.25-0.597,0.57-0.611C64.987,73.466,65.26,73.714,65.27,74.059z"/>
	<path fill-rule="evenodd" clip-rule="evenodd" fill="#FFFFFF" d="M77.499,59.465c0.339,0.016,0.587,0.3,0.563,0.643
		c-0.022,0.324-0.289,0.561-0.62,0.546c-0.339-0.015-0.587-0.296-0.562-0.64C76.902,59.69,77.174,59.449,77.499,59.465z"/>
	<path fill-rule="evenodd" clip-rule="evenodd" fill="#FFFFFF" d="M78.064,69.2c0,0.328-0.249,0.585-0.578,0.594
		c-0.343,0.009-0.611-0.253-0.61-0.595c0.001-0.327,0.253-0.585,0.578-0.595C77.794,68.595,78.064,68.861,78.064,69.2z"/>
</g>
<g>
	<path fill-rule="evenodd" clip-rule="evenodd" fill="#666666" d="M32.13,2.212c0.628,0.289,0.8,0.807,0.695,1.433
		c0.514,0.072,1.005,0.097,1.473,0.214c2.063,0.521,3.432,2.521,3.274,4.642c-0.196,2.625-1.474,4.685-3.294,6.463
		c-1.426,1.394-3.051,2.496-4.929,3.206c-0.113,0.042-0.224,0.143-0.289,0.245c-0.954,1.518-2.092,2.856-3.689,3.794
		c0.223,0.616,0.201,1.26-0.111,1.805c-0.354,0.622-0.21,1.245-0.251,1.82c0.57,0.286,1.118,0.523,1.624,0.831
		c0.266,0.162,0.503,0.417,0.671,0.682c0.153,0.244,0.315,0.305,0.574,0.292c0.371-0.017,0.742-0.006,1.113-0.005
		c0.593,0.005,0.771,0.181,0.772,0.771c0.002,2.286,0.001,4.573,0.001,6.859c0,0.142,0,0.283,0,0.436
		c0.13,0.01,0.225,0.016,0.318,0.021c0.493,0.038,0.676,0.232,0.681,0.734c0.004,0.609,0.005,1.222-0.001,1.83
		c-0.004,0.494-0.212,0.711-0.699,0.711C24.975,39,19.887,39,14.797,38.998c-0.486,0-0.694-0.217-0.699-0.708
		c-0.006-0.575-0.002-1.149-0.001-1.724c0-0.647,0.151-0.807,0.787-0.845c0.059-0.003,0.117-0.015,0.212-0.026
		c0-0.134,0-0.263,0-0.392c0-2.287,0-4.573,0.001-6.86c0-0.639,0.167-0.806,0.808-0.809c0.12,0,0.239-0.003,0.359,0
		c0.612,0.026,1.15,0.051,1.581-0.609c0.27-0.414,0.885-0.608,1.359-0.88c0.193-0.109,0.421-0.16,0.65-0.244
		c0-0.438,0.003-0.867-0.002-1.297c-0.001-0.068-0.026-0.143-0.059-0.2c-0.483-0.898-0.511-1.384-0.328-2.175
		c-0.382-0.278-0.781-0.54-1.148-0.841c-0.983-0.803-1.754-1.791-2.445-2.849c-0.114-0.174-0.306-0.333-0.497-0.415
		c-3.046-1.296-5.5-3.277-7.107-6.203c-0.744-1.355-1.142-2.828-0.935-4.386c0.302-2.265,2.15-3.831,4.437-3.83
		c0.07,0,0.139,0,0.269,0c-0.106-0.664,0.047-1.204,0.691-1.493C19.197,2.212,25.664,2.212,32.13,2.212z M13.174,3.375
		c0,0.111-0.003,0.194,0,0.275c0.081,2.276,0.3,4.536,0.785,6.765c0.625,2.861,1.568,5.595,3.248,8.027
		c0.663,0.96,1.421,1.84,2.413,2.48c0.159,0.104,0.372,0.169,0.56,0.172c1.197,0.012,2.402-0.084,3.59,0.022
		c1.089,0.097,1.861-0.324,2.548-1.067c0.171-0.184,0.349-0.362,0.511-0.553c1.769-2.072,2.818-4.508,3.573-7.089
		c0.681-2.33,1.039-4.717,1.201-7.133c0.041-0.626,0.006-1.257,0.006-1.899C25.502,3.375,19.363,3.375,13.174,3.375z M16.27,28.798
		c0,2.32,0,4.6,0,6.879c4.124,0,8.223,0,12.32,0c0-2.307,0-4.586,0-6.879C24.475,28.798,20.384,28.798,16.27,28.798z M12.075,4.908
		c-1.572-0.333-3.319,0.915-3.579,2.58c-0.233,1.494,0.187,2.872,0.923,4.152c1.233,2.149,3.066,3.672,5.202,4.862
		c0.032,0.018,0.075,0.016,0.155,0.031C13.05,12.814,12.329,8.91,12.075,4.908z M32.782,4.903c-0.25,4.026-0.978,7.927-2.697,11.628
		c0.081-0.014,0.118-0.01,0.144-0.025c0.36-0.212,0.729-0.413,1.076-0.643c1.921-1.282,3.554-2.833,4.515-4.982
		c0.48-1.074,0.742-2.2,0.546-3.384C36.089,5.825,34.416,4.612,32.782,4.903z M15.264,37.825c4.794,0,9.562,0,14.321,0
		c0-0.329,0-0.631,0-0.932c-4.787,0-9.545,0-14.321,0C15.264,37.207,15.264,37.504,15.264,37.825z M24.288,22.257
		c-0.709,0-1.294,0-1.88,0c-0.584,0-1.168,0-1.834,0c0,0.4-0.019,0.765,0.013,1.122c0.008,0.082,0.185,0.216,0.286,0.217
		c1.04,0.016,2.081,0.016,3.122-0.001c0.099-0.001,0.272-0.138,0.28-0.222C24.307,23.015,24.288,22.652,24.288,22.257z
		 M25.892,27.594c-1.31-1.134-5.823-1.063-6.898,0C21.291,27.594,23.578,27.594,25.892,27.594z M23.834,25.606
		c0-0.265,0-0.534,0-0.813c-0.946,0-1.871,0-2.807,0c0,0.29,0,0.557,0,0.813C21.963,25.606,22.877,25.606,23.834,25.606z"/>
	<path fill-rule="evenodd" clip-rule="evenodd" fill="#666666" d="M30.506,4.751c-0.091,0.906-0.154,1.751-0.263,2.591
		c-0.29,2.248-0.791,4.446-1.635,6.555c-0.689,1.723-1.56,3.335-2.887,4.66c-0.244,0.243-0.518,0.455-0.792,0.693
		c-0.232-0.326-0.438-0.617-0.625-0.879c0.487-0.536,0.995-1.026,1.422-1.579c1.035-1.339,1.702-2.872,2.234-4.467
		c0.802-2.408,1.2-4.892,1.365-7.418c0.003-0.047,0.01-0.094,0.017-0.157C29.711,4.751,30.072,4.751,30.506,4.751z"/>
	<path fill-rule="evenodd" clip-rule="evenodd" fill="#666666" d="M22.452,29.933c1.412,0,2.825-0.002,4.237,0
		c0.595,0.003,0.774,0.181,0.775,0.77c0.002,1.04,0.003,2.081,0,3.124c-0.001,0.546-0.187,0.743-0.727,0.744
		c-2.874,0.003-5.747,0.004-8.62,0c-0.524-0.001-0.719-0.199-0.72-0.716c-0.003-1.063-0.003-2.13,0-3.196
		c0.001-0.535,0.195-0.723,0.745-0.725C19.578,29.931,21.015,29.933,22.452,29.933z M26.297,33.41c0-0.79,0-1.541,0-2.31
		c-2.585,0-5.15,0-7.729,0c0,0.78,0,1.537,0,2.31C21.151,33.41,23.709,33.41,26.297,33.41z"/>
</g>
<g>
	<path fill-rule="evenodd" clip-rule="evenodd" fill="#FFFFFF" d="M87.17,2.212c0.629,0.289,0.8,0.807,0.695,1.433
		c0.514,0.072,1.004,0.097,1.473,0.214C91.4,4.38,92.77,6.38,92.611,8.501c-0.195,2.625-1.473,4.685-3.293,6.463
		c-1.426,1.394-3.051,2.496-4.93,3.206c-0.112,0.042-0.224,0.143-0.289,0.245c-0.953,1.518-2.092,2.856-3.688,3.794
		c0.224,0.616,0.2,1.26-0.11,1.805c-0.354,0.622-0.211,1.245-0.252,1.82c0.57,0.286,1.118,0.523,1.624,0.831
		c0.267,0.162,0.503,0.417,0.671,0.682c0.152,0.244,0.314,0.305,0.574,0.292c0.37-0.017,0.741-0.006,1.113-0.005
		c0.592,0.005,0.771,0.181,0.771,0.771c0.002,2.286,0.001,4.573,0.001,6.859c0,0.142,0,0.283,0,0.436
		c0.13,0.01,0.225,0.016,0.318,0.021c0.493,0.038,0.677,0.232,0.681,0.734c0.004,0.609,0.005,1.222-0.001,1.83
		c-0.004,0.494-0.212,0.711-0.698,0.711C80.015,39,74.927,39,69.838,38.998c-0.486,0-0.695-0.217-0.699-0.708
		c-0.006-0.575-0.002-1.149-0.002-1.724c0.001-0.647,0.151-0.807,0.787-0.845c0.059-0.003,0.117-0.015,0.213-0.026
		c0-0.134,0-0.263,0-0.392c0-2.287-0.001-4.573,0-6.86c0-0.639,0.167-0.806,0.809-0.809c0.119,0,0.238-0.003,0.358,0
		c0.612,0.026,1.149,0.051,1.581-0.609c0.27-0.414,0.885-0.608,1.358-0.88c0.192-0.109,0.421-0.16,0.65-0.244
		c0-0.438,0.003-0.867-0.003-1.297c0-0.068-0.025-0.143-0.059-0.2c-0.482-0.898-0.51-1.384-0.327-2.175
		c-0.382-0.278-0.78-0.54-1.148-0.841c-0.983-0.803-1.754-1.791-2.444-2.849c-0.115-0.174-0.307-0.333-0.498-0.415
		c-3.045-1.296-5.5-3.277-7.106-6.203c-0.744-1.355-1.142-2.828-0.935-4.386c0.302-2.265,2.15-3.831,4.438-3.83
		c0.069,0,0.139,0,0.269,0c-0.106-0.664,0.048-1.204,0.691-1.493C74.237,2.212,80.703,2.212,87.17,2.212z M68.215,3.375
		c0,0.111-0.004,0.194,0,0.275c0.08,2.276,0.299,4.536,0.785,6.765c0.624,2.861,1.568,5.595,3.248,8.027
		c0.662,0.96,1.421,1.84,2.412,2.48c0.159,0.104,0.372,0.169,0.561,0.172c1.197,0.012,2.402-0.084,3.59,0.022
		c1.089,0.097,1.861-0.324,2.547-1.067c0.172-0.184,0.35-0.362,0.512-0.553c1.77-2.072,2.818-4.508,3.573-7.089
		c0.681-2.33,1.038-4.717,1.201-7.133c0.041-0.626,0.007-1.257,0.007-1.899C80.542,3.375,74.402,3.375,68.215,3.375z M71.311,28.798
		c0,2.32,0,4.6,0,6.879c4.123,0,8.223,0,12.319,0c0-2.307,0-4.586,0-6.879C79.516,28.798,75.424,28.798,71.311,28.798z
		 M67.115,4.908c-1.572-0.333-3.318,0.915-3.578,2.58c-0.234,1.494,0.186,2.872,0.922,4.152c1.234,2.149,3.066,3.672,5.203,4.862
		c0.031,0.018,0.074,0.016,0.154,0.031C68.09,12.814,67.369,8.91,67.115,4.908z M87.822,4.903c-0.25,4.026-0.979,7.927-2.697,11.628
		c0.08-0.014,0.117-0.01,0.144-0.025c0.36-0.212,0.729-0.413,1.076-0.643c1.921-1.282,3.554-2.833,4.515-4.982
		c0.48-1.074,0.742-2.2,0.547-3.384C91.129,5.825,89.456,4.612,87.822,4.903z M70.304,37.825c4.794,0,9.562,0,14.321,0
		c0-0.329,0-0.631,0-0.932c-4.787,0-9.545,0-14.321,0C70.304,37.207,70.304,37.504,70.304,37.825z M79.328,22.257
		c-0.709,0-1.295,0-1.88,0c-0.584,0-1.168,0-1.834,0c0,0.4-0.019,0.765,0.013,1.122c0.009,0.082,0.186,0.216,0.286,0.217
		c1.04,0.016,2.081,0.016,3.122-0.001c0.099-0.001,0.271-0.138,0.279-0.222C79.347,23.015,79.328,22.652,79.328,22.257z
		 M80.932,27.594c-1.309-1.134-5.822-1.063-6.897,0C76.33,27.594,78.618,27.594,80.932,27.594z M78.874,25.606
		c0-0.265,0-0.534,0-0.813c-0.946,0-1.87,0-2.808,0c0,0.29,0,0.557,0,0.813C77.003,25.606,77.917,25.606,78.874,25.606z"/>
	<path fill-rule="evenodd" clip-rule="evenodd" fill="#FFFFFF" d="M85.547,4.751c-0.092,0.906-0.154,1.751-0.264,2.591
		c-0.289,2.248-0.791,4.446-1.635,6.555c-0.689,1.723-1.561,3.335-2.887,4.66c-0.244,0.243-0.519,0.455-0.792,0.693
		c-0.231-0.326-0.438-0.617-0.625-0.879c0.487-0.536,0.995-1.026,1.422-1.579c1.035-1.339,1.702-2.872,2.234-4.467
		c0.802-2.408,1.2-4.892,1.365-7.418c0.003-0.047,0.011-0.094,0.017-0.157C84.751,4.751,85.112,4.751,85.547,4.751z"/>
	<path fill-rule="evenodd" clip-rule="evenodd" fill="#FFFFFF" d="M77.492,29.933c1.412,0,2.824-0.002,4.236,0
		c0.595,0.003,0.773,0.181,0.775,0.77c0.002,1.04,0.002,2.081,0,3.124c-0.002,0.546-0.188,0.743-0.727,0.744
		c-2.875,0.003-5.747,0.004-8.62,0c-0.524-0.001-0.719-0.199-0.72-0.716c-0.004-1.063-0.004-2.13,0-3.196
		c0.001-0.535,0.195-0.723,0.744-0.725C74.618,29.931,76.055,29.933,77.492,29.933z M81.338,33.41c0-0.79,0-1.541,0-2.31
		c-2.586,0-5.15,0-7.729,0c0,0.78,0,1.537,0,2.31C76.191,33.41,78.75,33.41,81.338,33.41z"/>
</g>
</svg>
