<?xml version="1.0" encoding="utf-8"?>
<!-- Generator: Adobe Illustrator 16.0.0, SVG Export Plug-In . SVG Version: 6.00 Build 0)  -->
<!DOCTYPE svg PUBLIC "-//W3C//DTD SVG 1.1//EN" "http://www.w3.org/Graphics/SVG/1.1/DTD/svg11.dtd">
<svg version="1.1" id="Layer_1" xmlns="http://www.w3.org/2000/svg" xmlns:xlink="http://www.w3.org/1999/xlink" x="0px" y="0px"
	 width="20px" height="20px" viewBox="0 0 20 20" enable-background="new 0 0 20 20" xml:space="preserve">
<g>
	<path fill-rule="evenodd" clip-rule="evenodd" fill="#818181" d="M10.371,0.477c0.48,0.085,0.969,0.142,1.439,0.262
		c0.939,0.239,1.771,0.703,2.508,1.331c1.259,1.074,1.947,2.467,2.229,4.074c0.271,1.566,0.122,3.092-0.545,4.545
		c-0.188,0.409-0.432,0.795-0.688,1.167c-1.729,2.514-3.47,5.02-5.208,7.528c-0.03,0.044-0.065,0.085-0.107,0.141
		c-0.036-0.045-0.063-0.075-0.087-0.11c-1.824-2.637-3.652-5.271-5.469-7.912c-0.575-0.837-0.884-1.783-1.031-2.783
		c-0.174-1.19-0.092-2.364,0.259-3.515c0.556-1.825,1.672-3.185,3.387-4.04C7.828,0.781,8.642,0.561,9.5,0.503
		C9.542,0.5,9.584,0.486,9.626,0.477C9.875,0.477,10.123,0.477,10.371,0.477z M9.993,18.309c0.046-0.059,0.078-0.094,0.105-0.134
		c1.561-2.254,3.119-4.509,4.682-6.76c0.352-0.506,0.65-1.041,0.84-1.628c0.537-1.647,0.492-3.284-0.132-4.897
		c-0.521-1.35-1.436-2.371-2.721-3.032C11.19,1.046,9.549,0.941,7.889,1.565c-1.63,0.613-2.77,1.75-3.4,3.379
		c-0.453,1.168-0.58,2.379-0.404,3.619c0.135,0.951,0.442,1.841,0.992,2.638c1.094,1.586,2.192,3.172,3.289,4.759
		C8.902,16.734,9.439,17.51,9.993,18.309z"/>
	<path fill-rule="evenodd" clip-rule="evenodd" fill="#818181" d="M12.494,7.106c-0.006,1.343-1.107,2.429-2.453,2.42
		c-1.333-0.01-2.424-1.111-2.419-2.44c0.005-1.339,1.117-2.443,2.45-2.433C11.417,4.664,12.501,5.761,12.494,7.106z M11.795,7.097
		c0.006-0.954-0.777-1.742-1.733-1.743c-0.944-0.001-1.727,0.774-1.74,1.723c-0.012,0.949,0.769,1.741,1.729,1.75
		C11.005,8.835,11.79,8.058,11.795,7.097z"/>
</g>
</svg>
