<?xml version="1.0" encoding="utf-8"?>
<!-- Generator: Adobe Illustrator 16.0.0, SVG Export Plug-In . SVG Version: 6.00 Build 0)  -->
<!DOCTYPE svg PUBLIC "-//W3C//DTD SVG 1.1//EN" "http://www.w3.org/Graphics/SVG/1.1/DTD/svg11.dtd">
<svg version="1.1" id="Layer_1" xmlns="http://www.w3.org/2000/svg" xmlns:xlink="http://www.w3.org/1999/xlink" x="0px" y="0px"
	 width="20px" height="20px" viewBox="0 0 20 20" enable-background="new 0 0 20 20" xml:space="preserve">
<g>
	<path fill-rule="evenodd" clip-rule="evenodd" fill="#818181" d="M1.793,14.681c0-3.121,0-6.241,0-9.361
		c0.046-0.135,0.075-0.277,0.14-0.403c0.263-0.52,0.702-0.75,1.274-0.75c2.98,0,5.96,0,8.94,0c1.548,0,3.097,0.001,4.645-0.001
		c0.385-0.001,0.725,0.107,1.009,0.375c0.225,0.213,0.333,0.487,0.406,0.779c0,3.12,0,6.24,0,9.361
		c-0.045,0.134-0.074,0.277-0.14,0.403c-0.264,0.519-0.703,0.751-1.276,0.75c-2.994-0.001-5.99,0-8.985,0
		c-1.533,0-3.065-0.001-4.598,0.001c-0.385,0-0.726-0.108-1.008-0.374C1.974,15.247,1.867,14.974,1.793,14.681z M12.243,9.87
		c0.052,0.057,0.087,0.098,0.126,0.134c0.93,0.875,1.861,1.747,2.793,2.62c0.203,0.19,0.236,0.328,0.113,0.464
		c-0.123,0.133-0.275,0.11-0.47-0.073c-0.775-0.728-1.551-1.455-2.325-2.182c-0.213-0.2-0.426-0.399-0.647-0.605
		c-0.272,0.238-0.538,0.47-0.804,0.701c-0.248,0.216-0.529,0.354-0.861,0.386c-0.475,0.047-0.881-0.099-1.233-0.416
		c-0.253-0.227-0.513-0.446-0.77-0.671c-0.987,0.927-1.961,1.841-2.935,2.753c-0.051,0.048-0.102,0.097-0.157,0.138
		c-0.118,0.083-0.26,0.072-0.347-0.029c-0.092-0.107-0.098-0.224-0.013-0.336c0.036-0.048,0.08-0.087,0.123-0.128
		c0.931-0.873,1.862-1.746,2.794-2.619c0.043-0.039,0.09-0.071,0.147-0.117C5.97,8.312,4.185,6.754,2.367,5.169
		C2.35,5.323,2.324,5.438,2.324,5.551c-0.002,2.965-0.004,5.931,0,8.895c0,0.539,0.322,0.857,0.862,0.857
		c4.541,0.002,9.082,0.002,13.623-0.004c0.146,0,0.304-0.027,0.433-0.09c0.33-0.159,0.438-0.453,0.438-0.808
		c-0.004-1.33-0.001-2.66-0.001-3.99c0-1.598,0.001-3.194-0.002-4.792c-0.001-0.138-0.026-0.274-0.044-0.449
		C15.812,6.759,14.029,8.313,12.243,9.87z M17.243,4.806c-0.002-0.018-0.005-0.036-0.006-0.054c-0.169-0.02-0.339-0.055-0.509-0.055
		C12.909,4.694,9.091,4.694,5.271,4.694c-0.684,0-1.367-0.003-2.051,0.003C3.068,4.699,2.916,4.735,2.72,4.762
		C2.801,4.839,2.838,4.876,2.877,4.91c2.142,1.868,4.281,3.736,6.424,5.604c0.443,0.387,0.955,0.385,1.4-0.003
		c1.885-1.642,3.769-3.285,5.653-4.928C16.65,5.324,16.947,5.065,17.243,4.806z"/>
</g>
</svg>
